<svg width="88" height="88" viewBox="0 0 88 88" fill="none" xmlns="http://www.w3.org/2000/svg">
<path d="M21.781 43.6491C20.4641 42.3445 19.6403 40.6241 19.4496 38.7805C17.7906 40.8483 16.8068 43.3752 16.6309 46.0205C16.4549 48.6653 17.0954 51.3003 18.4655 53.5698C18.7405 54.0261 19.0895 54.4333 19.4984 54.775C22.2737 57.0908 25.7055 58.4777 29.3104 58.7408C32.9152 59.0038 36.5119 58.1298 39.5942 56.2413C42.5022 54.7296 45.0558 52.6171 47.0855 50.0444C49.1153 47.4712 50.5754 44.4961 51.3685 41.316C52.1489 38.4461 51.8755 35.3921 50.5987 32.7059C49.6346 31.3186 48.3181 30.2133 46.7848 29.5037C46.9509 30.298 46.9509 31.1177 46.7848 31.912C45.6283 36.472 42.8238 40.4428 38.9129 43.0576C36.6008 45.1975 33.5966 46.4349 30.448 46.5433C27.2994 46.6522 24.2171 45.6246 21.7635 43.6489L21.781 43.6491Z" fill="#F4F4F5"/>
<path d="M34.8899 28.9615C33.7523 29.9694 32.3097 30.5669 30.7923 30.659C29.2754 30.7511 27.771 30.3324 26.5196 29.4697C25.9851 29.1014 25.6565 28.5015 25.634 27.8524C24.7407 28.5624 24.2468 29.6616 24.3086 30.8009C24.3704 31.9406 24.9805 32.9797 25.9459 33.5885C29.3228 35.0576 33.2191 34.6799 36.2514 32.5904C37.9579 31.3652 39.1111 29.5152 39.4598 27.4436C39.5682 26.8326 39.4626 26.2032 39.161 25.6614C39.0399 25.4437 38.8619 25.2632 38.6462 25.1388C37.7132 24.6015 36.6525 24.3249 35.5758 24.3379C36.1691 25.0148 36.4351 25.918 36.303 26.8084C36.1712 27.6989 35.6547 28.4863 34.8908 28.9618L34.8899 28.9615Z" fill="#F4F4F5"/>
<path d="M39.9048 25.6561C40.1589 26.2557 40.2338 26.9157 40.1209 27.557C39.7419 29.8049 38.4893 31.8117 36.6363 33.1397C33.3964 35.3753 29.2297 35.7706 25.6268 34.1849C24.6852 33.605 24.0104 32.6772 23.7489 31.6027C21.7736 32.7432 20.4407 34.7378 20.1423 36.9996C19.844 39.261 20.6146 41.533 22.2273 43.1466C24.5628 45.0164 27.4937 45.9825 30.4835 45.8688C33.4733 45.7554 36.3219 44.5691 38.5088 42.5274C42.2991 40.0086 45.0188 36.1725 46.1409 31.762C46.4859 30.0351 45.9351 28.2504 44.6763 27.0183C43.4175 25.7865 41.6219 25.2742 39.9023 25.6564L39.9048 25.6561Z" fill="#E4E4E7"/>
<path d="M29.5188 24.9365C29.4029 25.1837 29.4042 25.4701 29.5224 25.7161C29.6411 25.9624 29.8637 26.1425 30.1289 26.2068C30.9646 26.5906 31.9275 26.5832 32.757 26.1867C33.5865 25.7902 34.197 25.0457 34.4229 24.1545C34.4237 24.1529 34.4237 24.1508 34.4229 24.1488C33.7469 23.4122 32.7463 23.0643 31.7592 23.2231C30.7722 23.3815 29.9308 24.0252 29.5195 24.9362L29.5188 24.9365Z" fill="#F4F4F5"/>
<path d="M34.4854 28.4188C35.121 28.0435 35.5478 27.3961 35.6423 26.664C35.7364 25.9319 35.488 25.1973 34.9683 24.6731C34.6139 25.6553 33.8675 26.4463 32.9079 26.8576C31.9478 27.2685 30.8605 27.2632 29.905 26.8425C29.5318 26.7336 29.2117 26.4918 29.0055 26.1623C28.7997 25.8329 28.7219 25.4392 28.7874 25.0562C27.7107 25.4065 26.842 26.2118 26.4114 27.2586C26.1654 27.8589 26.3721 28.5488 26.907 28.9155C28.0426 29.6979 29.4086 30.0744 30.7848 29.9839C32.1607 29.8939 33.4661 29.3423 34.4899 28.4187L34.4854 28.4188Z" fill="#E4E4E7"/>
<path d="M67.9748 52.0049C69.256 50.2993 71.2289 49.2508 73.3593 49.1436C75.631 49.0282 77.7655 48.022 79.2996 46.3429C79.564 46.0524 79.6917 45.6628 79.6503 45.272C79.609 44.8816 79.4027 44.5268 79.0835 44.298C78.1796 43.6461 77.1581 43.1751 76.0757 42.9103C75.8253 42.8493 75.5679 42.8199 75.3105 42.8223C71.855 42.8608 68.4355 43.5262 65.2181 44.7858C60.785 47.2841 55.3648 47.2677 50.9475 44.742C48.8162 49.9462 44.9114 54.2275 39.9255 56.8273C36.7241 58.7839 32.9899 59.6879 29.2481 59.4124C25.5061 59.137 21.9447 57.6957 19.0641 55.2919C18.5976 54.9024 18.1986 54.4379 17.8843 53.9178C17.5639 53.3854 17.2799 52.8317 17.0347 52.2605C14.1027 53.2933 11.0281 53.8642 7.92129 53.9526C7.58981 53.9632 7.29354 54.1625 7.15932 54.4657C7.02509 54.769 7.07665 55.1225 7.2919 55.3746C10.4912 59.126 14.8053 61.7569 19.6056 62.8835C29.6604 63.9827 39.8173 63.7384 49.8074 62.1572C53.3767 61.8257 56.8367 60.7515 59.9657 59.0033C63.0946 57.255 65.8233 54.8714 67.9759 52.0055L67.9748 52.0049Z" fill="#E4E4E7"/>
<circle cx="73.2581" cy="45.4588" r="0.611078" fill="white"/>
<path d="M73.3732 26.466C71.8902 31.6141 71.8091 37.0648 73.1379 42.2547L73.9522 42.1986C74.7007 37.0714 76.5872 32.1771 79.4743 27.8745C79.5652 27.7206 79.5197 27.5226 79.3716 27.4231C79.2231 27.3237 79.0225 27.3572 78.9149 27.4997C76.2132 31.5268 74.3688 36.0664 73.4952 40.8369C72.511 36.1374 72.6918 31.2679 74.0227 26.6542C74.0619 26.4803 73.9592 26.306 73.7882 26.2565C73.6171 26.2074 73.437 26.2998 73.3777 26.4676L73.3732 26.466Z" fill="#E4E4E7"/>
</svg>
