<svg width="88" height="88" viewBox="0 0 88 88" fill="none" xmlns="http://www.w3.org/2000/svg">
<path d="M40.3032 13.5959C37.9493 13.665 35.6605 14.384 33.6901 15.6735C31.7196 16.9626 30.1445 18.7722 29.1387 20.9013C29.0302 21.1309 28.9476 21.3715 28.8927 21.6195C28.3395 24.1207 27.0647 26.4042 25.2261 28.1876C23.3878 29.9714 21.0667 31.1765 18.5503 31.6546C18.1198 31.7364 17.7454 31.9987 17.5211 32.3748C17.2973 32.7513 17.2449 33.2055 17.3779 33.6229C17.5665 34.2184 17.8424 34.7827 18.1963 35.297C18.4525 35.6707 18.8609 35.9117 19.3115 35.9551C19.7625 35.9989 20.2094 35.8409 20.5322 35.5233C21.7582 34.3186 23.1316 33.2734 24.6192 32.412C25.6639 31.808 26.8679 31.5354 28.071 31.6304H28.0743C30.2984 31.8031 32.5205 31.2699 34.4238 30.1064C34.9144 29.8061 35.5029 29.7091 36.0639 29.8347C36.6254 29.9607 37.1156 30.3004 37.4312 30.7812C39.6938 33.5501 40.3076 37.3158 39.0415 40.6596C38.2668 43.3462 37.9726 46.1481 38.1731 48.937C38.3016 50.7098 38.7988 52.4363 39.6333 54.0061C41.9973 58.4581 45.3797 62.2892 49.5042 65.1874C51.1297 66.2783 52.1818 68.0393 52.3725 69.9871C52.5636 71.9355 51.8733 73.8666 50.4905 75.2527C49.2071 76.5549 47.3931 77.1899 45.5777 76.9722C43.7619 76.7545 42.1495 75.7086 41.2103 74.1396C40.7528 73.1525 40.7581 72.0136 41.2238 71.0307C41.69 70.0477 42.5686 69.3225 43.622 69.0516C44.6758 68.7807 45.7949 68.9923 46.6772 69.6286C47.3111 70.0878 47.6553 70.8473 47.5833 71.6268C47.5071 72.451 47.0963 73.2085 46.4468 73.7216C46.3625 73.7859 46.3077 73.8817 46.295 73.9868C46.2819 74.092 46.3122 74.1976 46.378 74.2807C46.4443 74.3633 46.5413 74.4157 46.6465 74.4263C46.7521 74.4366 46.8573 74.4038 46.9383 74.3359C48.055 73.4209 48.6501 72.0148 48.529 70.5759C48.0232 69.1378 46.852 68.0337 45.3861 67.6135C43.9203 67.1933 42.3419 67.5092 41.1506 68.461C39.7163 69.4968 38.7709 71.0777 38.5377 72.832C38.3045 74.5864 38.8037 76.3591 39.9177 77.7341C40.2225 78.1102 40.6043 78.4167 41.0369 78.6336C43.5373 79.8858 46.3283 80.4432 49.1175 80.2476C52.0951 80.2529 54.8835 78.7891 56.57 76.3358C58.2564 73.882 58.6238 70.7544 57.5521 67.9765L49.7928 47.8664C48.3487 44.1236 48.6499 39.932 50.615 36.4348C52.7888 32.5648 53.6739 28.103 53.1411 23.6957C52.8518 20.8925 51.5169 18.3013 49.4024 16.4382C47.2883 14.5745 44.5498 13.5761 41.7322 13.6411C41.2583 13.5928 40.782 13.5711 40.3057 13.5765L40.3032 13.5959ZM33.7032 20.4934C33.9442 20.4746 34.1815 20.5609 34.3542 20.7299C34.5269 20.8989 34.6186 21.1338 34.6055 21.3753C34.621 21.6069 34.5396 21.8348 34.3812 22.0047C34.2225 22.1741 34.0007 22.2703 33.7682 22.2703C33.5362 22.2703 33.314 22.1741 33.1556 22.0047C32.9968 21.8348 32.9158 21.6069 32.9313 21.3753C32.9064 20.9202 33.2493 20.529 33.7032 20.4934Z" fill="#E4E4E7"/>
<path d="M53.4266 44.0931C53.3034 44.2887 53.2257 44.5101 53.2003 44.7397C53.0939 45.649 53.2842 46.5677 53.7434 47.3596C56.5756 44.7557 59.8441 42.6715 63.3995 41.2015C62.7562 40.5697 61.9049 40.194 61.0047 40.1449C57.9548 40.0148 55.0668 41.5203 53.4267 44.0952L53.4266 44.0931Z" fill="#E4E4E7"/>
<path d="M63.8975 59.952C63.1957 60.2135 62.4276 60.2364 61.7114 60.0167C60.0537 59.4925 58.4851 58.7207 57.0581 57.7274C57.0892 57.5662 57.1281 57.4066 57.1743 57.2486C57.282 56.8869 57.1531 56.4961 56.8511 56.2689C56.3023 55.8589 55.8288 55.3568 55.4523 54.7842C59.3428 56.0103 63.3884 56.6761 67.4664 56.7612C66.7408 58.2557 65.4611 59.4081 63.8991 59.9736L63.8975 59.952Z" fill="#E4E4E7"/>
<path d="M69.3525 55.2504C70.5261 53.0397 70.946 50.5063 70.5474 48.035C70.4832 47.6356 70.2634 47.2779 69.9356 47.0397C69.6082 46.802 69.2003 46.7033 68.8 46.7659C63.771 47.548 58.9234 49.2258 54.4864 51.7192C54.5109 52.4673 54.6779 53.2039 54.9779 53.8902C59.0963 55.2652 63.4018 55.9972 67.7431 56.0607C68.0619 56.1053 68.3864 56.0517 68.6733 55.9069C68.9606 55.762 69.1967 55.5332 69.3501 55.2505L69.3525 55.2504Z" fill="#E4E4E7"/>
<path d="M64.6362 41.4481C60.751 42.9074 57.1859 45.107 54.138 47.9249C54.2837 48.1037 54.4437 48.2703 54.6164 48.4229C54.9021 48.6713 55.0023 49.0707 54.8689 49.4247C54.6852 49.9064 54.5657 50.4101 54.5133 50.9229C58.7631 48.5879 63.3751 46.9837 68.1564 46.1779C68.1102 44.5234 67.426 42.9516 66.2462 41.791C66.0383 41.586 65.776 41.4448 65.4908 41.3843C65.2051 41.3233 64.908 41.3458 64.6347 41.4481L64.6362 41.4481Z" fill="#E4E4E7"/>
<path d="M32.0292 38.1816C33.7807 39.735 36.1009 40.4863 38.4303 40.2555C38.6484 39.3614 38.7593 38.4443 38.7602 37.524C37.7461 37.8018 36.6735 37.7814 35.6709 37.4654C34.6683 37.1495 33.7779 36.5512 33.1064 35.7426C32.7344 36.5496 32.3751 37.3628 32.0285 38.1816L32.0292 38.1816Z" fill="#F4F4F5"/>
<path d="M36.8543 31.154C36.6059 30.7763 36.2032 30.5275 35.7543 30.4747C34.9321 31.9737 34.1562 33.4976 33.4274 35.0445C34.0146 35.8597 34.8434 36.4698 35.796 36.7878C36.7491 37.1062 37.7783 37.1164 38.737 36.8169C38.6155 34.7974 37.9662 32.8445 36.8543 31.154Z" fill="#F4F4F5"/>
<path d="M52.6807 11.1079C52.6856 11.0281 52.6467 10.9524 52.5796 10.9094C52.5125 10.8664 52.4274 10.8632 52.3574 10.9008C50.7536 11.8269 48.8299 12.0212 47.0734 11.434C45.317 10.8468 43.8966 9.53481 43.1723 7.83044C43.1338 7.75882 43.0594 7.71381 42.9783 7.71381C42.8969 7.71381 42.8224 7.75882 42.7839 7.83044C41.8644 9.30695 40.3753 10.3374 38.6692 10.6783C36.9636 11.0192 35.1928 10.6398 33.7761 9.63025C33.7073 9.58318 33.6173 9.5795 33.5449 9.62083C33.472 9.66176 33.4291 9.74073 33.4336 9.82422C33.5261 11.2885 33.0391 12.7301 32.0778 13.8383C31.1166 14.9464 29.7579 15.6323 28.2954 15.7474C28.2083 15.7547 28.1338 15.8128 28.1055 15.8959C28.0777 15.9786 28.1014 16.0702 28.1661 16.1288C28.8548 16.7696 29.4478 17.5059 29.927 18.3152C32.6951 14.6248 37.1618 12.6111 41.7599 12.9806C44.742 12.922 47.6368 13.9856 49.8712 15.9609C52.106 17.9362 53.5166 20.6793 53.8243 23.6457C54.3735 28.1951 53.4605 32.801 51.2167 36.7965C49.3514 40.1154 49.0641 44.0938 50.4338 47.6467L58.1927 67.7578C58.8225 69.3947 58.9964 71.1712 58.6973 72.8993C59.1879 72.3829 59.758 71.9483 60.3857 71.6111C60.4467 71.5804 60.4901 71.5227 60.5027 71.4556C60.5154 71.3885 60.4958 71.3193 60.4504 71.2682C59.5943 70.3245 59.0537 69.1369 58.9043 67.8716C58.7549 66.6058 59.0041 65.3253 59.6172 64.2081C59.6466 64.1553 59.6528 64.0927 59.6343 64.035C59.6159 63.9773 59.5746 63.9299 59.5202 63.9037C58.2954 63.2984 57.3238 62.2799 56.7764 61.0281C56.2288 59.7763 56.1412 58.3714 56.5284 57.0611C56.5537 56.9714 56.5202 56.8757 56.4441 56.8216C55.2994 55.9639 54.4646 54.7571 54.0661 53.3834C53.6679 52.0096 53.7272 50.5438 54.2355 49.2068C54.2682 49.1192 54.242 49.021 54.1708 48.9609C52.9481 47.894 52.3302 46.2935 52.518 44.682C52.5581 44.3497 52.6731 44.0309 52.854 43.7494C53.2951 43.0565 53.8267 42.4255 54.4344 41.8731C53.6749 41.1512 53.2092 40.1739 53.1277 39.1296C53.0463 38.0848 53.354 37.047 53.9924 36.2162C54.6308 35.3855 55.5544 34.8204 56.5844 34.6305C56.6565 34.6165 56.7166 34.5674 56.7453 34.5003C56.7739 34.4328 56.767 34.3555 56.7268 34.2941C55.9804 33.1786 55.7549 31.7937 56.1093 30.4993C56.4641 29.2045 57.3632 28.1274 58.5736 27.5475C58.6395 27.518 58.6866 27.4579 58.6993 27.3867C58.7124 27.3155 58.6895 27.2426 58.6383 27.1919C57.4237 26.0133 56.7199 24.405 56.6789 22.7133C56.6376 21.0216 57.2625 19.3809 58.4185 18.1452C58.475 18.0842 58.493 17.997 58.4639 17.9189C58.4353 17.8411 58.3653 17.7859 58.2826 17.7764C56.674 17.6029 55.1943 16.8152 54.1519 15.5777C53.1096 14.3403 52.585 12.7483 52.6873 11.1335L52.6807 11.1079Z" fill="#F4F4F5"/>
<path d="M30.3622 43.0277C30.4952 42.3546 30.6703 41.6908 30.886 41.0394C31.1638 40.3048 31.4523 39.574 31.7507 38.8471C33.5566 40.367 35.883 41.1244 38.2377 40.9583C37.9869 41.8999 37.7925 42.8554 37.6558 43.82C35.2287 44.6711 32.5466 44.3802 30.3585 43.0277L30.3622 43.0277Z" fill="#F4F4F5"/>
<path d="M37.5699 44.5719C37.4512 45.644 37.4037 46.7232 37.4278 47.8019C35.0469 48.8815 32.2814 48.6817 30.0806 47.2711C30.0065 46.095 30.0585 44.914 30.2357 43.7489C32.4586 45.0339 35.1174 45.3318 37.5694 44.5707L37.5699 44.5719Z" fill="#F4F4F5"/>
<path d="M37.4567 48.5363C37.4767 48.6853 37.4984 48.8338 37.5213 48.9824C37.5574 49.4902 37.622 49.9956 37.7153 50.4961C36.955 51.4123 35.9442 52.0872 34.8065 52.4374C33.6685 52.7877 32.4535 52.7984 31.3097 52.4685C30.74 51.0742 30.3635 49.6088 30.1912 48.1127C32.4322 49.3596 35.12 49.5143 37.4889 48.5326L37.4567 48.5363Z" fill="#F4F4F5"/>
<path d="M37.8643 51.3206C38.0799 52.1731 38.3787 53.0022 38.756 53.7961C37.665 55.5246 35.7756 56.587 33.7315 56.6214C32.8959 55.5893 32.1871 54.4607 31.6215 53.2592C33.8968 53.7204 36.2507 52.9895 37.8643 51.3206Z" fill="#F4F4F5"/>
<path d="M34.2878 57.2734C35.0186 58.0861 35.8281 58.8239 36.705 59.4766C36.8548 59.5879 37.0054 59.698 37.1576 59.8064C38.6325 59.1558 39.7407 57.8823 40.1814 56.3317C39.8053 55.7301 39.4489 55.1162 39.1129 54.4914C37.9802 56.0706 36.2218 57.0843 34.2878 57.2734Z" fill="#F4F4F5"/>
<path d="M39.6882 61.4221C39.0457 61.0574 38.4175 60.6679 37.8053 60.2549C39.1091 59.5715 40.1223 58.4392 40.6568 57.0674C41.0705 57.6915 41.5051 58.3012 41.9606 58.8954C41.5575 59.9995 40.7431 60.9048 39.6882 61.4221Z" fill="#F4F4F5"/>
<path d="M47.3474 64.4181C44.9285 63.8522 42.593 62.976 40.3988 61.8113C41.2954 61.2671 42.0082 60.4662 42.4445 59.5123C43.9004 61.3166 45.5439 62.9613 47.3474 64.4181Z" fill="#F4F4F5"/>
</svg>
