<svg width="88" height="88" viewBox="0 0 88 88" fill="none" xmlns="http://www.w3.org/2000/svg">
<path d="M21.9423 35.3132C19.5087 35.8636 17.3124 37.1723 15.6697 39.0507L7.26625 48.6613C7.12711 48.8217 7.06327 49.0337 7.0915 49.244C7.11933 49.4548 7.23596 49.643 7.41234 49.7613L9.79976 51.3778H9.79935C10.0015 51.5145 10.2577 51.5427 10.4844 51.4539L20.7543 47.4476C23.0619 46.5465 25.6659 46.8428 27.712 48.2399L29.1095 49.1974L29.1091 49.197C26.8866 46.0304 25.9515 42.1366 26.4945 38.306C25.9208 38.5523 25.2709 38.5519 24.6977 38.3039C24.1243 38.0564 23.6783 37.5833 23.4646 36.9965C23.3672 36.7281 23.2813 36.4551 23.2064 36.1789C22.7685 35.9186 22.3487 35.6297 21.9488 35.3134L21.9423 35.3132ZM21.0285 40.6388C21.3346 40.6405 21.6268 40.7661 21.8388 40.9871C22.0504 41.2081 22.1633 41.5056 22.1519 41.8113C22.1662 42.1198 22.0541 42.421 21.8408 42.6449C21.6276 42.8683 21.3318 42.9947 21.0228 42.9947C20.7138 42.9947 20.4184 42.8683 20.2052 42.6449C19.992 42.421 19.8794 42.1198 19.8942 41.8113C19.8827 41.5035 19.9973 41.2044 20.2113 40.983C20.4253 40.7616 20.7208 40.6372 21.0285 40.6388Z" fill="#E4E4E7"/>
<path d="M23.341 30.3537C22.872 31.7995 22.7313 33.3321 22.9302 34.8392C20.5885 33.1561 19.0385 30.5877 18.6407 27.7317C18.6304 27.6577 18.6591 27.584 18.7168 27.5365C18.7745 27.4891 18.8522 27.4747 18.923 27.4989C20.6061 28.0792 22.1236 29.0585 23.3456 30.3532L23.341 30.3537Z" fill="#F4F4F5"/>
<path d="M26.8452 36.5524C26.8874 36.3941 26.9324 36.2361 26.9799 36.0794C27.6969 33.4235 27.2786 30.5892 25.8251 28.2538C25.7866 28.1912 25.7191 28.1527 25.6459 28.1515C25.5726 28.1502 25.5034 28.1867 25.4629 28.2476C23.7548 30.7108 23.348 33.8496 24.3724 36.6666C24.5659 37.1998 25.0836 37.5456 25.6499 37.5198C26.2167 37.4945 26.7012 37.1037 26.8457 36.5549L26.8452 36.5524Z" fill="#E4E4E7"/>
<path d="M55.8004 59.7604L57.2773 55.1767C56.251 54.7216 55.1743 54.3901 54.0702 54.188L52.2704 59.7601L55.8004 59.7604Z" fill="#E4E4E7"/>
<path d="M71.1595 60.7336H48.8347C46.2243 60.7332 43.7149 61.7419 41.8309 63.5491C41.6353 63.7369 41.5735 64.025 41.6746 64.2767C41.7756 64.5284 42.0199 64.6937 42.2913 64.6937H72.9331C74.8474 64.6941 76.6714 63.8781 77.9469 62.4507C79.2229 61.0234 79.8293 59.12 79.6149 57.2176C79.4004 55.3151 78.3852 53.5943 76.8235 52.4869C76.3324 53.0971 75.7484 53.6271 75.0933 54.0563C74.4802 54.4569 73.8435 54.8199 73.1863 55.1432C73.8545 55.7022 74.2629 56.512 74.3149 57.3816C74.3664 58.2512 74.0575 59.104 73.4604 59.7384C72.863 60.3727 72.0306 60.7328 71.1593 60.7336L71.1595 60.7336Z" fill="#E4E4E7"/>
<path d="M41.3118 55.6778L40.0407 59.6118C40.0121 59.6993 39.9306 59.7591 39.8381 59.7599H36.4677L37.9234 55.2359C39.0324 55.5096 40.1689 55.6578 41.311 55.6774L41.3118 55.6778Z" fill="#E4E4E7"/>
<path d="M48.4618 53.2903C51.112 52.7485 53.8587 52.9236 56.4188 53.7969C58.7914 43.608 58.9797 33.0321 56.9708 22.7654C54.3649 22.1495 51.6812 21.9293 49.0098 22.1118C52.7034 32.2128 52.5066 43.3272 48.4577 53.2911L48.4618 53.2903Z" fill="#F4F4F5"/>
<path d="M57.3372 54.1441C57.5484 54.2312 57.7575 54.3229 57.9641 54.4195C58.2973 54.5762 58.6353 54.7219 58.9774 54.8565C62.5782 45.4464 64.168 35.3865 63.6455 25.3242C61.8621 24.349 59.9735 23.5808 58.0158 23.0342C59.9653 33.3377 59.7341 43.9363 57.3373 54.1443L57.3372 54.1441Z" fill="#E4E4E7"/>
<path d="M47.3241 53.4967C51.542 43.5344 51.7863 32.3358 48.0067 22.199C46.2863 22.382 44.5876 22.7318 42.9352 23.2438C47.2005 33.1245 47.6866 44.2276 44.3011 54.4429C45.3406 54.2408 46.3547 53.9232 47.3241 53.4964L47.3241 53.4967Z" fill="#E4E4E7"/>
<path d="M30.9592 30.9215C28.3672 33.8119 27.0654 37.6344 27.3544 41.5066C27.6437 45.3783 29.4992 48.9647 32.4922 51.4382C35.4853 53.9111 39.3574 55.0574 43.2146 54.6117C46.7082 44.4711 46.2776 33.3901 42.0082 23.5509C37.7632 25.038 33.9628 27.5735 30.96 30.9218L30.9592 30.9215Z" fill="#F4F4F5"/>
<path d="M74.5569 53.2421C76.4922 51.976 77.6126 49.7796 77.5025 47.4695C77.2926 43.0957 76.0101 38.8406 73.7683 35.0793C71.5262 31.3178 68.3935 28.1655 64.6462 25.9004C65.08 35.8839 63.4636 45.8502 59.8968 55.1856C64.8247 56.7979 70.2186 56.083 74.5571 53.2425L74.5569 53.2421Z" fill="#F4F4F5"/>
</svg>
