<svg width="88" height="88" viewBox="0 0 88 88" fill="none" xmlns="http://www.w3.org/2000/svg">
<path d="M15.4324 11.1174C14.4499 11.1223 13.523 11.5753 12.9158 12.3483C10.1065 15.9184 8.69374 20.3896 8.94297 24.926C8.96302 25.2841 9.12385 25.6197 9.39025 25.8599C10.3761 26.7475 11.0755 27.9089 11.3979 29.1959C11.677 30.4297 11.5579 31.7196 11.0583 32.8814C10.886 33.2821 10.9167 33.7412 11.1401 34.1156C11.262 34.3211 11.3926 34.5216 11.5317 34.7164C13.0323 34.9533 14.5657 34.5818 15.7918 33.6847C16.0156 33.5231 16.3279 33.5722 16.4911 33.7944C16.6544 34.017 16.6074 34.3297 16.386 34.4946C15.2409 35.3311 13.8607 35.7837 12.4426 35.7869C12.8793 36.2203 13.3617 36.6046 13.8818 36.9331C14.3615 37.236 14.9127 37.407 15.4795 37.4287C16.0467 37.4504 16.6093 37.3219 17.1106 37.0563C18.7724 36.1757 20.2874 35.0425 21.6023 33.6974C21.288 32.0148 21.1677 30.3017 21.2434 28.592C21.3039 26.4222 22.1089 24.3397 23.524 22.6934C24.9387 21.0474 26.8768 19.9384 29.0126 19.5526C29.2786 19.5153 29.5266 19.6942 29.5753 19.9581C29.6244 20.2221 29.457 20.4778 29.1955 20.5384C27.2845 20.8834 25.5506 21.8762 24.2853 23.3494C23.0204 24.8226 22.301 26.6866 22.2486 28.6276C22.1086 31.8003 22.6762 34.964 23.9104 37.89C25.1446 40.816 27.0148 43.4306 29.3851 45.5438C31.0756 47.0519 32.0426 49.2101 32.0421 51.4756V69.4234C32.0425 70.5827 32.656 71.6553 33.6549 72.2438C35.264 73.0364 37.0106 73.5119 38.7993 73.6445C39.7675 73.7157 40.7165 73.3462 41.3815 72.6391C41.7534 72.245 42.1013 71.8284 42.4229 71.3922C42.8841 70.6867 43.09 69.8441 43.0053 69.0056C42.921 68.1667 42.5518 67.3822 41.9593 66.7827H41.9425C41.8938 66.7344 41.8271 66.709 41.7588 66.7127C41.6904 66.7164 41.6266 66.7483 41.5832 66.8015C41.174 67.2979 40.9027 67.8937 40.7967 68.5284C40.7463 68.7964 40.491 68.9757 40.2217 68.9306C39.9524 68.886 39.7683 68.6344 39.8076 68.3643C39.9426 67.5556 40.2884 66.7969 40.8098 66.1643C41.0307 65.8958 41.354 65.7321 41.7015 65.7129C42.0485 65.6933 42.3881 65.8197 42.6378 66.062C43.7414 66.132 44.8251 65.7444 45.6338 64.9903C46.4424 64.2361 46.9044 63.1819 46.9109 62.0762C46.9109 56.7705 45.1124 51.6221 41.8087 47.4713C40.6935 46.0714 40.0838 44.3354 40.0784 42.5454C40.0698 38.5915 39.706 34.6466 38.9915 30.7576C38.9453 30.4875 39.1249 30.2301 39.3942 30.1802C39.6639 30.1303 39.9234 30.3063 39.9774 30.5747C40.7037 34.523 41.0741 38.528 41.0839 42.5417C41.0847 43.3315 41.2205 44.1152 41.4853 44.8595C44.298 47.4155 47.9679 48.8216 51.7683 48.7995C51.8178 48.4819 51.8645 48.1644 51.9087 47.8464C53.3479 43.3183 55.9654 39.2547 59.4921 36.0722C59.6987 35.8864 60.0163 35.9032 60.2021 36.1095C60.3879 36.3161 60.3711 36.6341 60.1644 36.8195C56.7908 39.8629 54.2806 43.7436 52.888 48.0688C52.401 51.5452 51.6055 54.9708 50.5116 58.306C49.5045 60.7319 48.9279 63.3146 48.8075 65.9384C48.5689 66.7029 48.233 67.4334 47.8086 68.1123C47.4137 68.7449 46.7434 69.1542 46.0002 69.2159C45.5828 69.2495 45.1825 69.3956 44.8416 69.6387C44.5007 69.8818 44.2319 70.2128 44.0641 70.5967C44.0277 70.69 44.0522 70.7964 44.1263 70.8639C46.3787 73.1457 49.54 74.2899 52.7311 73.9781C55.0457 73.3402 57.1037 71.9975 58.6203 70.1363C60.3783 65.7522 61.5663 61.1607 62.1556 56.4743C65.9586 54.1565 68.9046 50.6641 70.5484 46.5243C72.0965 42.9603 72.7467 39.0711 72.4414 35.1975C72.4046 34.7416 72.2712 34.2988 72.0498 33.8982C70.2341 30.5925 67.3772 27.9792 63.9234 26.4638C60.4696 24.9484 56.6118 24.6161 52.9496 25.5189C51.5173 25.8712 50.015 25.8176 48.6114 25.3646C42.0741 23.2571 35.9258 20.0946 30.409 16.0024C25.9755 13.182 20.9109 11.5062 15.6701 11.1252C15.5887 11.1158 15.5068 11.1096 15.425 11.1063L15.4324 11.1174ZM13.5619 24.3293C13.8369 24.3309 14.0996 24.4439 14.2895 24.6428C14.4798 24.8412 14.5813 25.1085 14.5707 25.3835C14.5809 25.6593 14.4782 25.9269 14.2871 26.1254C14.0956 26.3243 13.8316 26.4364 13.5554 26.4364C13.2796 26.4364 13.0156 26.3243 12.8241 26.1254C12.6326 25.9269 12.5303 25.6593 12.5405 25.3835C12.5299 25.1064 12.633 24.8371 12.8261 24.6378C13.0189 24.439 13.2849 24.3273 13.5619 24.3293Z" fill="#E4E4E7"/>
<path d="M13.3531 37.7792C13.0764 37.604 12.8092 37.4141 12.5522 37.2112C11.3891 41.8559 10.8833 46.6406 11.0487 51.4253C8.93708 57.357 7.60828 63.5389 7.09558 69.8152C7.04811 70.3987 7.16064 70.9839 7.42092 71.5081C7.68119 72.0324 8.07937 72.476 8.57246 72.7906C10.6836 74.1407 13.0227 75.0941 15.4757 75.6057C15.8391 75.6814 16.2177 75.6057 16.5238 75.3953C17.9192 74.4373 19.0925 73.1904 19.9642 71.7389C20.3022 71.1689 20.4622 70.5108 20.4241 69.8491C20.3857 69.1874 20.1508 68.5523 19.7493 68.0252C19.4575 68.4398 19.088 68.7942 18.6616 69.0688C18.4291 69.2099 18.1267 69.1404 17.9798 68.912C17.8325 68.6837 17.8939 68.3796 18.1181 68.2262C18.8015 67.7854 19.2709 67.0803 19.4137 66.2795L23.7081 39.8177C22.8995 38.2441 22.2803 36.5803 21.8634 34.8612C20.5865 36.0794 19.1477 37.1164 17.5874 37.9418C16.9306 38.2896 16.1931 38.4578 15.45 38.4292C14.7069 38.4009 13.9846 38.1767 13.3561 37.7797L13.3531 37.7792Z" fill="#F4F4F5"/>
<path d="M66.0619 68.3257C65.9101 68.3281 65.7685 68.2499 65.6891 68.1206C65.6101 67.9909 65.6052 67.8293 65.6764 67.6954C66.1151 66.8717 66.7027 66.1367 67.4099 65.5274C67.804 65.1869 68.0749 64.7261 68.1801 64.2158C68.2852 63.7054 68.2185 63.1747 67.991 62.7066C66.9073 60.4763 65.6229 58.35 64.1528 56.3533C66.7547 54.459 68.8991 52.0057 70.4275 49.1734C73.0715 51.1693 75.0559 53.9127 76.1236 57.0486C76.6642 58.2137 77.4642 59.2396 78.4627 60.0474C79.3118 60.7341 79.755 61.8043 79.6404 62.8903C79.5254 63.976 78.8682 64.9299 77.8942 65.4239C74.2252 67.2843 70.1783 68.277 66.0645 68.3261L66.0619 68.3257Z" fill="#F4F4F5"/>
</svg>
