<svg width="88" height="88" viewBox="0 0 88 88" fill="none" xmlns="http://www.w3.org/2000/svg">
<path d="M44.9219 13.8422C38.2474 14.1368 31.8172 16.4408 26.4754 20.4524C22.8169 23.2003 20.621 27.4739 20.5166 32.0485C20.3869 37.7261 20.6509 43.4058 21.3065 49.0472C21.6383 48.9997 21.967 48.9355 22.2923 48.8545C24.769 48.6052 27.0766 47.4848 28.8039 45.6927C30.5312 43.9004 31.5661 41.5534 31.7241 39.069C31.7654 38.4142 32.0994 37.8127 32.6338 37.4312C33.1683 37.0502 33.8459 36.9299 34.4786 37.1042C37.0547 37.8151 39.4908 38.9593 41.6826 40.4882C42.5224 41.0733 43.5532 41.3181 44.566 41.1728C45.5792 41.0275 46.4996 40.5033 47.1412 39.7057C47.7829 38.9085 48.098 37.8973 48.0231 36.8763C47.7751 33.4859 48.6337 30.1065 50.4695 27.2451C51.1975 26.1087 51.3097 24.6834 50.7687 23.4467C50.2277 22.21 49.1047 21.3248 47.776 21.0878C44.6843 20.535 41.4968 21.049 38.7358 22.5451C38.4314 22.7084 38.0528 22.5942 37.8896 22.2901C37.7267 21.9861 37.8409 21.6071 38.1449 21.4443C41.1547 19.8147 44.6287 19.2553 47.9975 19.8581C49.737 20.1687 51.207 21.3276 51.915 22.9464C52.623 24.5653 52.4757 26.431 51.5226 27.9194C49.8325 30.5536 49.0431 33.665 49.2719 36.7865C49.3697 38.1227 48.9568 39.4466 48.1167 40.4901C47.2761 41.534 46.0714 42.2199 44.7446 42.4093C43.4183 42.5992 42.0695 42.2784 40.9703 41.5123C40.0778 40.8903 39.1411 40.3342 38.1675 39.8492C37.7219 41.8671 36.9922 43.8117 36.0002 45.6246C38.3692 49.9354 42.0015 53.4175 46.4085 55.6024C47.0318 55.9113 47.5568 56.3881 47.9239 56.979C48.2906 57.57 48.4854 58.2521 48.4858 58.9478V68.7042V68.7038C47.3522 69.8124 46.74 71.3478 46.8002 72.9319H53.0863C53.581 72.9327 53.9899 72.5464 54.0173 72.0525C54.2931 66.8893 55.54 61.8247 57.6929 57.1239H57.7126C57.8534 56.8178 58.1116 56.5812 58.4291 56.4691C58.7467 56.3566 59.0962 56.377 59.3982 56.5264C61.3425 57.4955 63.4418 58.1159 65.6004 58.3597C66.2904 58.4379 66.9447 58.7064 67.4902 59.1356C68.0357 59.5649 68.4507 60.1378 68.6888 60.7897C69.3129 62.499 70.1669 64.1146 71.2284 65.5928C71.9384 66.5848 72.1197 67.8612 71.713 69.0115C71.2694 70.2736 71.0165 71.595 70.962 72.9315H77.3251H77.3246C77.7838 72.9323 78.175 72.5984 78.2462 72.145L79.4886 64.1766V64.177C79.7153 62.6874 79.7153 61.172 79.4886 59.6825L78.3424 51.9359C78.2253 51.1506 78.1664 50.3575 78.166 49.5632V37.3899C78.1656 34.8302 77.3341 32.3392 75.7962 30.2927C74.2587 28.2462 72.098 26.7542 69.639 26.0413C67.0777 25.2989 64.7397 23.9346 62.8332 22.0701C60.5595 19.8472 58.06 17.8674 55.3754 16.1629C53.2147 14.7908 50.7372 13.9969 48.1812 13.8582C47.0959 13.7984 46.0082 13.7923 44.9225 13.8394L44.9219 13.8422ZM28.5172 26.7285C28.8884 26.7248 29.2456 26.8713 29.5067 27.1353C29.7682 27.3988 29.9114 27.7573 29.9041 28.1285C29.9041 28.4927 29.7596 28.8418 29.5022 29.0992C29.2448 29.357 28.8957 29.5014 28.5315 29.5014C28.1673 29.5014 27.8183 29.357 27.5609 29.0992C27.3035 28.8418 27.159 28.4927 27.159 28.1285C27.1516 27.7622 27.2912 27.4083 27.5461 27.1455C27.8015 26.8824 28.151 26.7326 28.5172 26.7285Z" fill="#E4E4E7"/>
<path d="M45.8543 56.7222C46.2693 56.9276 46.6188 57.2452 46.8631 57.6389C47.1074 58.0321 47.2371 58.4864 47.2371 58.9497V68.2088C46.0991 69.5143 45.4963 71.2019 45.5499 72.933H38.5173C38.8034 71.5866 39.4618 70.3474 40.4178 69.3571C40.6777 69.0874 40.8639 68.7556 40.9584 68.393C42.1116 63.9754 42.6977 59.4289 42.7022 54.864C43.7072 55.5589 44.761 56.1801 45.8557 56.7227L45.8543 56.7222Z" fill="#F4F4F5"/>
<path d="M34.1472 38.3093C33.8767 38.234 33.5865 38.2843 33.3578 38.4472C33.129 38.6101 32.9858 38.8675 32.9682 39.1478C32.7926 41.9117 31.6464 44.525 29.732 46.5266C27.8177 48.5281 25.2579 49.7894 22.5047 50.0881C19.2026 50.8779 15.7209 50.1016 13.0671 47.9838C10.2585 45.0046 9.1115 40.8265 10.0056 36.8309C10.1403 35.7055 10.4623 34.6109 10.9579 33.5919C11.0279 33.4462 10.9812 33.2714 10.8482 33.1794C10.7152 33.0877 10.5352 33.1061 10.4239 33.2227C8.17766 35.6037 6.97814 38.7846 7.09275 42.0554C7.17091 45.1492 8.28725 48.1267 10.2626 50.5092C12.2376 52.8913 14.9569 54.5401 17.9823 55.1904C19.2288 55.458 20.5196 55.4388 21.757 55.1343C25.5334 54.2054 28.9697 52.2263 31.668 49.426C34.3665 46.6258 36.2166 43.1182 37.0047 39.3103C36.0761 38.9122 35.1218 38.5778 34.1478 38.309L34.1472 38.3093Z" fill="#F4F4F5"/>
<path d="M27.6624 62.9304C28.4138 63.3793 29.3455 63.4006 30.1161 62.986C30.8867 62.5715 31.3827 61.7821 31.4216 60.9075C31.4609 60.0334 31.0373 59.2031 30.3064 58.7215C28.7371 57.7332 27.4983 56.2989 26.7494 54.6022C25.3519 55.3135 23.882 55.8725 22.3649 56.269C22.3858 56.3242 22.4067 56.3791 22.4271 56.4343C22.5528 57.1398 22.8126 57.8147 23.1928 58.422C24.3345 60.2446 25.8732 61.7858 27.6943 62.9304L27.6624 62.9304Z" fill="#E4E4E7"/>
<path d="M65.4385 59.6033C64.9441 59.5468 64.4526 59.4723 63.964 59.3794C64.9253 62.0824 65.3075 64.9576 65.0861 67.8181C65.0583 68.1852 64.9769 68.5457 64.8439 68.8887C64.336 70.1875 63.9997 71.5474 63.8437 72.933H69.6969C69.7517 71.4553 70.0288 69.9935 70.5186 68.5981C70.7875 67.8316 70.6643 66.982 70.1896 66.3232C69.0626 64.753 68.1558 63.0363 67.4932 61.2205C67.3349 60.7863 67.0582 60.4049 66.6948 60.1189C66.3314 59.8332 65.8956 59.6544 65.4364 59.6028L65.4385 59.6033Z" fill="#F4F4F5"/>
</svg>
