<svg width="88" height="88" viewBox="0 0 88 88" fill="none" xmlns="http://www.w3.org/2000/svg">
<path d="M64.8707 13.6337C64.7798 13.6304 64.6894 13.6304 64.5985 13.6337C64.3342 13.6472 64.0718 13.6869 63.8153 13.7528C59.4783 14.8712 55.5477 17.1972 52.48 20.4608C49.4124 23.7243 47.334 27.7917 46.4856 32.1889C46.376 32.7581 46.0547 33.2644 45.587 33.606C45.1188 33.9477 44.5389 34.0995 43.9636 34.0312C39.7407 33.5217 35.4635 34.3254 31.7138 36.3327C27.7742 38.4423 23.0947 38.6669 18.9716 36.9445C17.0081 36.1236 15.1523 35.0657 13.4454 33.7943C13.3885 33.7501 13.3128 33.7366 13.2437 33.7583C13.1745 33.78 13.1205 33.8344 13.0992 33.9035C12.1694 36.8341 12.3168 40.0002 13.5154 42.8317C14.7137 45.6631 16.8841 47.9732 19.6354 49.3458C20.011 49.5324 20.3282 49.8184 20.5528 50.1728C20.7771 50.5276 20.8999 50.9368 20.9076 51.3563C20.9523 53.9737 22.049 56.463 23.9507 58.2624C25.8523 60.0618 28.3985 61.0193 31.0148 60.9191C31.7956 60.8876 32.5387 61.2563 32.986 61.8967C34.5394 64.1208 36.8998 65.651 39.5643 66.1617C42.2288 66.672 44.987 66.1224 47.2529 64.6304C49.5183 63.1379 51.1119 60.8201 51.695 58.1707C51.8042 57.6723 52.0764 57.225 52.4688 56.8988C52.8609 56.5731 53.3507 56.3869 53.8606 56.3705C56.5685 56.287 59.1375 55.1527 61.0237 53.2072C62.9098 51.2622 63.9643 48.6591 63.9643 45.9496V33.0723C63.9635 32.6876 63.8911 32.3067 63.7507 31.949C63.0747 30.2159 62.9073 28.3265 63.2682 26.5018C63.6288 24.677 64.5024 22.9931 65.7866 21.6475C66.1193 21.4322 66.4573 21.2252 66.7999 21.0263C67.8082 20.4419 68.5084 19.4442 68.715 18.2976C68.9221 17.1509 68.6143 15.9715 67.8741 15.0716C67.1338 14.1722 66.0354 13.6434 64.8707 13.6254L64.8707 13.6337ZM64.3526 17.6707H64.3694C64.6628 17.6719 64.9439 17.7918 65.1473 18.0034C65.3511 18.215 65.4604 18.5002 65.4505 18.794C65.4546 19.0846 65.3421 19.3649 65.1379 19.5715C64.9337 19.7786 64.655 19.8952 64.3644 19.8952C64.0735 19.8952 63.7952 19.7786 63.591 19.5715C63.3868 19.3649 63.2743 19.0846 63.2784 18.794C63.2681 18.5002 63.3774 18.215 63.5812 18.0034C63.785 17.7918 64.0657 17.6719 64.3595 17.6707H64.3526ZM51.711 36.7897C53.3012 36.7996 54.8371 37.3712 56.0467 38.4033C57.2564 39.4358 58.0626 40.8624 58.3225 42.4313C58.5823 44.0003 58.2795 45.6106 57.4672 46.9777C55.9919 49.4634 53.7584 51.4104 51.0952 52.5329C48.4319 53.6559 45.4786 53.8953 42.6692 53.2159L31.8273 50.6001H31.8269C30.8382 50.366 30.0333 49.6507 29.6838 48.6964C29.3348 47.7421 29.4882 46.6765 30.0922 45.8592C30.6962 45.042 31.6702 44.5828 32.6851 44.6369C35.0201 44.7502 37.2987 43.8937 38.9815 42.2707C42.2794 39.0865 46.5862 37.155 51.1569 36.8092C51.3411 36.7952 51.5256 36.7891 51.7106 36.7903L51.711 36.7897Z" fill="#E4E4E7"/>
<path d="M76.4469 22.3268C73.9314 21.1479 71.1335 20.7063 68.3774 21.0529C69.5261 19.8629 70.0061 18.1785 69.6579 16.5617C72.6874 17.2909 75.2623 19.2773 76.7363 22.0224C76.7809 22.1063 76.7674 22.2094 76.7019 22.2786C76.6364 22.3473 76.5341 22.367 76.4482 22.3265L76.4469 22.3268Z" fill="#F4F4F5"/>
<path d="M68.5311 28.666C68.7177 26.4243 67.8387 24.2254 66.1587 22.7302C64.7932 24.343 64.0549 26.3936 64.0794 28.5064C64.0913 29.2762 64.4993 29.9849 65.1586 30.3819C65.8174 30.7792 66.6351 30.8083 67.321 30.4592C68.0068 30.1101 68.4639 29.4321 68.5311 28.6656V28.666Z" fill="#F4F4F5"/>
<path d="M63.5706 12.7977C64.5277 12.5513 65.5365 12.5968 66.4678 12.9274C67.3992 13.2581 68.2108 13.8596 68.7984 14.6543C69.474 14.329 69.9802 13.7327 70.1918 13.0133C70.4034 12.2939 70.3007 11.5188 69.909 10.8792C69.5174 10.24 68.8733 9.79598 68.1358 9.65811C67.5486 9.54721 67.0354 9.19282 66.724 8.68211C66.2562 7.91563 65.4992 7.37049 64.6238 7.16956C63.7489 6.96903 62.8298 7.13027 62.0747 7.61643C61.7838 7.80427 61.4511 7.91762 61.1057 7.94626C60.0622 8.0322 59.0854 8.49504 58.3581 9.24887C57.6309 10.0023 57.2029 10.995 57.1542 12.041C57.1055 13.0869 57.439 14.115 58.0929 14.9329C59.8273 14.0056 61.6658 13.2891 63.5704 12.7984L63.5706 12.7977Z" fill="#F4F4F5"/>
<path d="M51.2338 37.8034C46.8944 38.1308 42.8054 39.9641 39.6733 42.9863C37.7925 44.8016 35.2455 45.7588 32.6346 45.632C31.9553 45.5984 31.3038 45.907 30.9003 46.4545C30.4963 47.0021 30.3936 47.7153 30.6265 48.3546C30.8593 48.9934 31.3967 49.4734 32.058 49.633L42.9029 52.2504C45.5052 52.8785 48.2404 52.6563 50.7068 51.6161C53.1737 50.5758 55.2419 48.7723 56.6083 46.4705C57.3277 45.2584 57.5765 43.8244 57.3085 42.4408C57.04 41.0576 56.2727 39.8205 55.1523 38.9656C54.0318 38.1108 52.6367 37.6971 51.2314 37.8034L51.2338 37.8034Z" fill="#F4F4F5"/>
<path d="M41.5161 74.9876L37.0257 74.2579L39.2269 67.1223L38.2579 66.8796L36.0828 73.9298L33.596 72.5748V72.5752C33.3566 72.4574 33.0668 72.5494 32.9392 72.7835C32.8115 73.018 32.8909 73.311 33.1196 73.4485L36.0014 75.015L37.9968 79.3721V79.3725C38.1143 79.618 38.4069 79.7244 38.6545 79.611C38.902 79.4981 39.0133 79.2071 38.9045 78.9575L37.2251 75.2978L41.3558 75.9697C41.6271 76.0147 41.8829 75.8314 41.9279 75.5605C41.9729 75.2892 41.79 75.033 41.5187 74.988L41.5161 74.9876Z" fill="#F4F4F5"/>
<path d="M46.3268 66.2923L49.7429 73.9567L46.774 74.7362C46.5108 74.8095 46.3557 75.0804 46.4261 75.3443C46.4965 75.6083 46.7662 75.7658 47.031 75.6983L50.3898 74.8164L54.5082 76.7942V76.7938C54.7558 76.9133 55.0529 76.8094 55.1724 76.5618C55.2919 76.3142 55.188 76.0167 54.9404 75.8976L51.5148 74.253L54.4661 72.5813C54.6945 72.4413 54.771 72.1459 54.6392 71.9126C54.5079 71.6798 54.2153 71.5926 53.9775 71.7158L50.671 73.5867L47.211 65.8335L46.3268 66.2923Z" fill="#F4F4F5"/>
</svg>
