<svg width="88" height="88" viewBox="0 0 88 88" fill="none" xmlns="http://www.w3.org/2000/svg">
<path d="M20.481 13.5353C19.2239 13.5099 17.9843 13.8332 16.8994 14.4692C15.8149 15.1051 14.9274 16.0288 14.3352 17.1382C15.0042 17.7357 15.377 18.5971 15.3554 19.4937C15.3333 20.3907 14.9187 21.2325 14.221 21.7967C15.154 22.5714 16.0449 23.3952 16.89 24.2644C17.3569 24.7452 17.6868 25.3423 17.8451 25.9934C18.0039 26.6445 17.9851 27.3263 17.7915 27.968C17.769 28.0252 17.7461 28.0829 17.7236 28.1406C20.1102 27.4589 22.2562 26.1186 23.9156 24.273C25.5754 22.4275 26.6807 20.1513 27.1059 17.7057C25.7096 15.5695 23.5178 14.08 21.0174 13.5681C20.8394 13.5505 20.661 13.5402 20.4822 13.537L20.481 13.5353ZM18.7999 19.4298C19.0254 19.4262 19.2423 19.5137 19.4023 19.6729C19.5619 19.8317 19.6503 20.0486 19.6478 20.2741C19.6478 20.7353 19.2738 21.1089 18.8126 21.1089C18.3514 21.1089 17.9773 20.7353 17.9773 20.2741C17.972 19.8137 18.3399 19.4364 18.7999 19.4298Z" fill="#E4E4E7"/>
<path d="M33.7595 61.4C34.3946 61.7405 34.8063 62.3883 34.8443 63.1082C34.8656 63.5309 34.8955 63.9528 34.9348 64.3739C34.9679 64.7262 35.1406 65.0508 35.4144 65.275L32.8891 70.2283H27.0989C26.8971 70.2303 26.7347 70.3944 26.7347 70.5962C26.7347 70.7979 26.8971 70.962 27.0989 70.9641H30.8941L27.2982 72.1847H27.2987C27.1149 72.2559 27.02 72.4593 27.083 72.6459C27.1464 72.833 27.3457 72.9365 27.5348 72.8812L33.0376 71.0103L36.5602 73.915H36.5606C36.7182 74.0276 36.9355 73.9985 37.0587 73.8491C37.1814 73.6994 37.1671 73.4804 37.0263 73.3478L33.5765 70.5004L36.0871 65.5648C36.2643 65.586 36.444 65.5709 36.6155 65.521C37.9443 65.1384 39.1506 64.4156 40.1143 63.4241C40.6058 62.9187 41.3215 62.6993 42.0119 62.8425C44.5351 63.3643 47.1042 63.6303 49.6807 63.6369L47.2716 68.3589H41.4814C41.2797 68.3609 41.1172 68.525 41.1172 68.7268C41.1172 68.9285 41.2797 69.0926 41.4814 69.0947H45.2767L41.6808 70.3154H41.6812C41.4975 70.387 41.4029 70.59 41.4664 70.7766C41.5294 70.9632 41.7283 71.0667 41.9173 71.0119L47.4202 69.1409L50.9436 72.0457C51.1012 72.1582 51.3189 72.1291 51.4417 71.9798C51.5644 71.83 51.5505 71.6111 51.4093 71.4785L47.9587 68.631L50.5041 63.6303H50.5045C51.778 63.6062 53.0495 63.5186 54.3144 63.368C50.7533 62.3916 47.1991 61.3894 43.6527 60.361C37.9273 59.561 32.5731 57.0627 28.2821 53.1889C26.026 51.2897 24.2344 48.8995 23.0452 46.2006C21.856 43.5021 21.3003 40.5672 21.421 37.6204C21.3977 37.2975 21.3977 36.973 21.421 36.6501C19.71 37.4714 17.7118 37.437 16.0299 36.5572C15.9214 37.5303 15.8424 38.5067 15.7937 39.4848C15.6787 41.81 16.2725 44.1156 17.4965 46.0962C21.482 52.5378 27.0941 57.8159 33.7682 61.3988L33.7595 61.4Z" fill="#F4F4F5"/>
<path d="M27.5116 30.2522C26.0482 30.393 24.6708 31.0072 23.5884 32.0016C22.5056 32.9956 21.7763 34.3162 21.5116 35.7621C20.6956 36.2494 19.763 36.5069 18.8123 36.5081C17.8616 36.5093 16.9283 36.2535 16.111 35.7682C16.4036 33.4703 16.8623 31.1967 17.4832 28.9652C19.9754 28.3403 22.2462 27.0389 24.0451 25.2044C25.8441 23.3703 27.1013 21.0745 27.677 18.5705C29.1192 20.7647 30.4099 23.0552 31.5405 25.4251C30.9304 27.2502 29.8574 28.8863 28.4263 30.1733C28.121 30.1905 27.8157 30.2167 27.5117 30.2519L27.5116 30.2522Z" fill="#E4E4E7"/>
<path d="M13.726 17.6C14.3079 18.0645 14.632 18.7794 14.5977 19.5229C14.5633 20.2665 14.1745 20.9486 13.5525 21.3571C11.7855 20.3189 9.65503 20.0991 7.71368 20.7555C9.04898 18.747 11.3161 17.5574 13.7276 17.5995L13.726 17.6Z" fill="#F4F4F5"/>
<path d="M31.9786 26.3623C32.2159 26.8869 32.4451 27.4152 32.6665 27.9468C32.5069 28.2496 32.4492 28.5958 32.502 28.9343C32.5544 29.2727 32.7148 29.5853 32.9587 29.8256C33.3458 30.2098 33.7452 30.5818 34.1557 30.9411C32.6551 30.4402 31.0861 30.1734 29.5041 30.1504C30.5631 29.0578 31.4025 27.772 31.9758 26.3623L31.9786 26.3623Z" fill="#F4F4F5"/>
<path d="M80.1743 73.2767C79.5797 73.8177 78.8525 74.1921 78.0668 74.3627C77.2807 74.5334 76.4638 74.4941 75.6982 74.2485C75.5264 74.1925 75.368 74.1021 75.2325 73.983C71.7958 70.9723 68.0809 68.2951 64.1383 65.9871C67.9567 66.9791 71.783 67.9411 75.617 68.8734C77.2412 70.072 78.7706 71.3942 80.1905 72.8286C80.2515 72.8871 80.2863 72.9681 80.2863 73.0524C80.2863 73.1371 80.2515 73.2178 80.1905 73.2763L80.1743 73.2767Z" fill="#E4E4E7"/>
<path d="M56.5023 46.7218C56.5903 47.4166 56.5665 48.1209 56.4327 48.8084L60.6809 52.5131C60.3519 51.9701 59.991 51.4475 59.6002 50.9474C58.6025 49.5119 57.5676 48.1029 56.4958 46.7218H56.5023Z" fill="#E4E4E7"/>
<path d="M33.4767 29.3029C34.5898 30.4033 35.8015 31.3994 37.0968 32.2779C37.8272 32.7084 38.5205 33.1983 39.1703 33.7429L55.7824 48.2357V48.2353C55.8986 47.222 55.7476 46.1961 55.3446 45.259C52.6678 41.9393 49.7812 38.7948 46.7025 35.8443C43.2286 32.3185 39.0205 29.6016 34.3773 27.8869C33.9979 27.7478 33.5732 27.8914 33.3567 28.2323C33.1402 28.5732 33.1901 29.0189 33.477 29.3029H33.4767Z" fill="#F4F4F5"/>
<path d="M63.7728 56.1786L78.1566 68.7311H78.1562C70.1088 66.8016 62.0941 64.7403 54.1144 62.5478C57.8511 61.3385 61.1895 59.1373 63.7734 56.179L63.7728 56.1786Z" fill="#E4E4E7"/>
<path d="M41.9635 59.3216C42.5794 59.4489 43.1994 59.5553 43.8222 59.6408C46.7998 60.5043 49.7829 61.3497 52.7708 62.1764C56.8229 61.109 60.4618 58.8514 63.2179 55.695L56.8385 50.1304C53.2242 54.9687 47.9075 58.254 41.9633 59.322L41.9635 59.3216Z" fill="#F4F4F5"/>
<path d="M27.5901 30.9835C25.9912 31.1354 24.5189 31.9198 23.5007 33.1627C22.483 34.4051 22.0034 36.0031 22.1695 37.6007C22.0451 40.4456 22.5763 43.2812 23.7221 45.8879C24.868 48.4947 26.5977 50.8035 28.7773 52.6356C31.9987 55.546 35.8487 57.6728 40.0276 58.8497C43.2282 58.5321 46.3273 57.5492 49.1256 55.9642C51.9243 54.3793 54.3613 52.2272 56.2797 49.6458L38.6943 34.3024L38.6939 34.302C35.6056 31.7177 31.5901 30.5175 27.5902 30.9831L27.5901 30.9835Z" fill="#E4E4E7"/>
</svg>
