<svg width="88" height="88" viewBox="0 0 88 88" fill="none" xmlns="http://www.w3.org/2000/svg">
<path d="M36.0746 21.1734C32.4264 21.9202 28.9905 23.4712 26.0171 25.7138C25.2089 26.3247 24.2533 26.711 23.2474 26.8338C20.0435 27.2225 16.9555 28.2734 14.1793 29.9193C11.7657 32.3714 10.1951 35.5277 9.69423 38.9321C9.6353 39.3421 9.65617 39.76 9.75561 40.1622C9.94631 40.934 9.9684 41.7377 9.82068 42.5185C9.58169 43.9946 8.9609 45.3823 8.02087 46.5449C7.58872 47.0917 7.61491 47.8704 8.08225 48.3873C8.46446 48.8198 8.9539 49.1443 9.50146 49.3273C10.049 49.5102 10.635 49.545 11.2006 49.4288C12.5163 48.8632 13.8065 48.2399 15.0674 47.5606C15.5077 47.3217 16.0176 47.2435 16.5091 47.3392C18.4189 47.7141 20.3975 47.2414 21.9318 46.0437C22.6266 45.5018 23.4824 45.2076 24.3634 45.2072C25.1794 43.1197 25.3873 40.8437 24.9633 38.6424C24.5394 36.4416 23.5008 34.4057 21.9678 32.7704C21.8323 32.6218 21.8413 32.3914 21.9886 32.2544C22.1356 32.1173 22.366 32.1238 22.5047 32.2691C24.1081 33.9796 25.2023 36.1032 25.6647 38.4017C26.1271 40.7 25.9389 43.0817 25.1217 45.2788C27.0422 45.5903 29.0003 45.0092 30.44 43.7005C30.3819 43.3175 30.3058 42.9373 30.2125 42.5612C29.5278 40.3449 29.3597 38.0012 29.721 35.7096C29.8213 33.9569 29.135 32.2507 27.8492 31.055C27.7731 30.9903 27.7269 30.8974 27.7207 30.7976C27.715 30.6977 27.7502 30.5999 27.8181 30.5267C27.886 30.4534 27.9806 30.4113 28.0808 30.4097C28.1807 30.4076 28.2769 30.4469 28.3472 30.5177H28.2957C29.7505 31.8706 30.5223 33.8046 30.3983 35.7873C30.0451 37.9856 30.2047 40.2356 30.8635 42.3624C31.1512 43.5143 31.2826 44.6998 31.254 45.8871C31.7598 51.056 33.7441 55.9692 36.9697 60.0394C37.2144 60.3479 37.2729 60.7649 37.1219 61.1287C36.9713 61.4925 36.6349 61.7458 36.2437 61.7904C35.2149 61.905 34.2495 62.3466 33.4904 63.0504C33.0984 63.413 32.9417 63.9642 33.0845 64.4786C33.2269 64.993 33.6447 65.385 34.1673 65.4947C36.272 65.9453 38.4486 65.9453 40.5533 65.4947C41.8845 65.1939 43.0197 64.3309 43.665 63.1281C45.5941 60.2779 47.4491 57.3781 49.2277 54.4312C49.5771 53.0526 49.8026 51.6448 49.9013 50.226C49.767 44.6319 48.5303 39.1191 46.2625 34.0036C46.2117 33.9136 46.2015 33.8063 46.2342 33.7085C46.2666 33.6103 46.339 33.5309 46.4331 33.4888C46.5276 33.447 46.6353 33.447 46.7298 33.4884C46.8243 33.5301 46.8968 33.6095 46.9295 33.7073C49.2441 38.9205 50.5053 44.5397 50.6404 50.2419C50.5356 51.7532 50.2913 53.2514 49.9111 54.7176V54.736C54.1507 54.2793 58.3469 53.4813 62.4585 52.3503C62.3574 52.0904 62.2575 51.8302 62.1593 51.5691C61.1772 47.943 60.9075 44.16 61.365 40.4308C61.4014 40.2409 61.579 40.1124 61.771 40.1366C61.9625 40.1607 62.1024 40.3293 62.091 40.5225C61.647 44.1441 61.9064 47.8182 62.8558 51.3412C64.2177 54.8798 65.8342 58.3148 67.6925 61.6197C67.8427 61.8878 67.8725 62.2074 67.7739 62.4983C67.6749 62.7897 67.4576 63.025 67.1748 63.1466C66.6682 63.3651 66.2025 63.6687 65.7981 64.0448C65.4081 64.4066 65.2518 64.9557 65.393 65.4685C65.5338 65.9817 65.9483 66.3737 66.4685 66.4858C68.5785 66.9389 70.7609 66.9389 72.8708 66.4858C73.6909 66.3602 74.436 65.9363 74.9636 65.2954C75.4907 64.655 75.7632 63.8423 75.7289 63.0132C76.4835 60.81 77.4072 58.668 78.492 56.6075C79.2453 54.4796 79.8191 52.2923 80.2074 50.0685C80.4914 46.3482 80.0086 42.6091 78.7882 39.0832C78.4555 38.1284 78.3184 37.1168 78.3847 36.1081C78.5312 33.9282 77.9464 31.7614 76.7225 29.9513C75.4984 28.1413 73.7052 26.7917 71.6276 26.1161C69.0728 25.6111 66.5282 25.0566 63.9952 24.4525C59.3206 22.7845 54.251 22.5689 49.4521 23.8342C48.186 24.1685 46.8437 24.0605 45.6472 23.5281C42.6217 22.1801 39.3803 21.3813 36.075 21.1685L36.0746 21.1734ZM18.8497 33.0115C19.5626 32.9943 20.2517 33.2668 20.7599 33.7665C21.2686 34.2657 21.5526 34.9504 21.5477 35.6632C21.5432 36.3757 21.2493 37.0562 20.7345 37.5489C20.5876 37.6692 20.3736 37.6582 20.2402 37.5231C20.1068 37.3881 20.0982 37.1737 20.2201 37.0284C20.7137 36.5623 20.9211 35.8678 20.764 35.2073C20.6073 34.5464 20.1096 34.0197 19.459 33.8254C18.8083 33.6314 18.1033 33.7988 17.6097 34.2649C17.4583 34.3877 17.2373 34.3709 17.1064 34.226C16.9758 34.0816 16.9807 33.8598 17.1182 33.7214C17.5905 33.2815 18.208 33.0303 18.853 33.0151L18.8497 33.0115ZM12.4932 41.2271C12.7399 41.2193 12.9789 41.3122 13.1561 41.4837C13.3333 41.6556 13.4335 41.8917 13.4335 42.1384C13.4335 42.6426 13.0247 43.0514 12.5206 43.0514C12.0164 43.0514 11.6076 42.6426 11.6076 42.1384C11.6084 41.6453 12.0004 41.2418 12.4932 41.2271Z" fill="#E4E4E7"/>
<path d="M57.8557 61.1014C58.3967 60.9839 58.8722 60.6639 59.1837 60.2064C59.4955 59.7489 59.6199 59.189 59.5311 58.6427C59.2766 57.0689 59.234 55.4683 59.4051 53.8834C60.5178 53.6264 61.6243 53.3461 62.7251 53.042C63.7785 55.6291 64.9676 58.159 66.2882 60.6205C66.1868 61.6002 65.7808 62.5234 65.1273 63.26C64.4741 63.9966 63.6061 64.5102 62.6457 64.7279C60.5398 65.1789 58.3627 65.1789 56.2569 64.7279C55.7359 64.617 55.3202 64.2253 55.1781 63.7118C55.0365 63.1986 55.1925 62.6487 55.5825 62.2861C56.2204 61.6943 57.0066 61.2851 57.8574 61.1026L57.8557 61.1014Z" fill="#F4F4F5"/>
<path d="M48.8692 64.0996C47.2192 64.5416 45.489 64.5915 43.8166 64.2449C43.9954 64.0141 44.1554 63.769 44.2954 63.5124C46.0694 60.8929 47.7804 58.2317 49.4274 55.5305C51.5222 55.3193 53.6081 55.0255 55.6796 54.6498L50.7848 62.6669H50.7852C50.3547 63.372 49.6697 63.8852 48.8717 64.0996L48.8692 64.0996Z" fill="#F4F4F5"/>
<path d="M10.5044 31.0598C10.4442 31.09 10.4074 31.1522 10.4099 31.2194C10.4234 31.8831 10.5826 32.5358 10.876 33.1313C11.3773 32.2187 11.9616 31.3544 12.6217 30.5491C11.8896 30.5765 11.1698 30.75 10.5056 31.0598L10.5044 31.0598Z" fill="#F4F4F5"/>
</svg>
