<svg width="88" height="88" viewBox="0 0 88 88" fill="none" xmlns="http://www.w3.org/2000/svg">
<path d="M23.2727 29.4004C23.2187 29.4057 23.1691 29.4315 23.134 29.4724C22.577 30.1096 21.8277 30.5483 20.999 30.7226C20.1707 30.8966 19.3085 30.7963 18.542 30.437C18.4721 30.3907 18.3812 30.3907 18.3112 30.437C17.8099 30.8732 17.2149 31.1879 16.572 31.3573C15.0591 36.3462 15.4937 41.7234 17.7894 46.4043C19.2393 48.9673 21.4033 51.0539 24.017 52.4105C26.167 53.5264 28.7259 53.5264 30.8756 52.4105C33.4885 51.0535 35.6513 48.9669 37.1004 46.4043C39.3949 41.7227 39.8287 36.3455 38.3142 31.3573C37.6733 31.1875 37.0795 30.8724 36.5794 30.437C36.5107 30.3936 36.4235 30.3936 36.3551 30.437C35.5883 30.7971 34.7252 30.8978 33.8961 30.7239C33.067 30.5495 32.3169 30.1104 31.7599 29.4725C31.6985 29.3816 31.5782 29.353 31.4828 29.4066C30.294 30.2173 28.8887 30.6511 27.4499 30.6511C26.0107 30.6511 24.6054 30.2173 23.417 29.4066C23.3806 29.3677 23.3311 29.3444 23.2783 29.3403L23.2727 29.4004ZM32.5248 33.3957C32.8297 33.4039 33.1182 33.5348 33.3249 33.7587C33.5315 33.9829 33.6388 34.2808 33.622 34.5853C33.6408 34.8959 33.5303 35.2004 33.3171 35.4267C33.1039 35.653 32.8068 35.7815 32.4958 35.7815C32.1848 35.7815 31.8873 35.653 31.6741 35.4267C31.4608 35.2004 31.3508 34.8959 31.3692 34.5853C31.352 34.2706 31.4674 33.9633 31.6867 33.7374C31.9061 33.5115 32.2102 33.3879 32.5248 33.3957ZM22.3728 33.462C22.6777 33.4567 22.9723 33.5749 23.1888 33.7898C23.4053 34.005 23.5252 34.2989 23.5219 34.6037C23.5329 34.9102 23.4188 35.2077 23.206 35.4283C22.9932 35.6489 22.7002 35.7737 22.3937 35.7737C22.0871 35.7737 21.7937 35.6489 21.5809 35.4283C21.3681 35.2077 21.254 34.9102 21.265 34.6037C21.2581 33.9837 21.7524 33.4738 22.3728 33.462Z" fill="#E4E4E7"/>
<path d="M23.1764 16.7795C24.2801 15.5952 25.8266 14.9224 27.4455 14.9224C29.0648 14.9224 30.6113 15.5952 31.7149 16.7795C32.0738 17.1642 32.6181 17.3144 33.1235 17.1687C34.9327 16.6453 36.8839 17.0521 38.3337 18.2544C39.7836 19.4567 40.544 21.2986 40.3647 23.1737C40.314 23.7102 40.5763 24.2278 41.0387 24.504C41.7937 24.9583 42.3233 25.708 42.4985 26.5714C42.674 27.4345 42.4792 28.3315 41.9616 29.044C41.4439 29.7569 40.6508 30.2193 39.7755 30.3192C38.9006 30.4194 38.0236 30.1473 37.3586 29.5699C36.9416 29.2069 36.3495 29.1238 35.8486 29.3587C35.3146 29.61 34.7134 29.6804 34.1359 29.5592C33.5581 29.4385 33.0359 29.1324 32.648 28.6876C32.1835 28.1552 31.3945 28.0533 30.8102 28.4502C29.8186 29.1267 28.6462 29.4889 27.4455 29.4889C26.2453 29.4889 25.0729 29.1267 24.0813 28.4502C23.4961 28.0504 22.7039 28.1523 22.239 28.6876C21.8514 29.1312 21.3297 29.4365 20.7535 29.5576C20.1769 29.6783 19.577 29.6088 19.0433 29.3587C18.5428 29.1238 17.9507 29.2069 17.5333 29.5699C16.8683 30.1473 15.9917 30.4194 15.1164 30.3192C14.2415 30.2193 13.4484 29.7569 12.9308 29.044C12.4131 28.3315 12.2179 27.4346 12.3935 26.5714C12.569 25.708 13.0986 24.9583 13.8532 24.5041C14.314 24.2266 14.5743 23.7089 14.5227 23.1737C14.3435 21.299 15.1038 19.4567 16.5537 18.2544C18.0032 17.052 19.954 16.6458 21.7635 17.1687C22.2702 17.3165 22.8165 17.1659 23.1766 16.7796L23.1764 16.7795Z" fill="#F4F4F5"/>
<path d="M8.01518 37.6997C9.10376 38.0983 10.2782 38.201 11.4195 37.9985C12.5609 37.7955 13.6281 37.2942 14.5128 36.5453C14.5775 34.8466 14.841 33.1614 15.2977 31.5241C14.5096 31.4926 13.7447 31.2462 13.0863 30.8116C12.4279 30.377 11.9004 29.771 11.5615 29.0585C8.9261 30.5449 7.23682 33.2785 7.08659 36.2998C7.05631 36.9194 7.43244 37.487 8.01518 37.6997Z" fill="#E4E4E7"/>
<path d="M46.8756 37.6997C47.4583 37.4869 47.8344 36.9193 47.8037 36.2998C47.6523 33.2772 45.9614 30.5436 43.3239 29.0585C42.9851 29.7702 42.4588 30.3758 41.8012 30.8105C41.144 31.2447 40.3804 31.4914 39.5926 31.5242C40.0481 33.1615 40.31 34.8471 40.373 36.5454C41.2585 37.2951 42.3266 37.7972 43.4688 37.9998C44.6109 38.2028 45.7862 38.0993 46.8757 37.6998L46.8756 37.6997Z" fill="#E4E4E7"/>
<path d="M42.7197 16.3504C42.2544 16.9376 41.4057 17.0461 40.8078 16.5947C39.5584 15.6506 37.9101 15.4185 36.4488 15.9813C38.0271 16.3954 39.4071 17.3579 40.3409 18.6961C41.2752 20.0342 41.7024 21.6613 41.5469 23.2859C41.5396 23.3649 41.578 23.4414 41.6455 23.4835C42.3891 23.9304 42.9813 24.5905 43.3455 25.3778C43.7093 26.1652 43.8284 27.0438 43.6868 27.8999C46.797 29.5523 48.8091 32.7185 48.9838 36.2362C49.0116 36.7907 48.861 37.3395 48.5545 37.8027C48.248 38.2655 47.8015 38.6183 47.2802 38.8094C44.9832 39.6512 42.4243 39.3594 40.3757 38.0225C40.2828 41.1346 39.5241 44.1907 38.15 46.985C36.5859 49.762 34.2459 52.0225 31.4169 53.49C30.1495 54.1473 28.739 54.48 27.3115 54.4583C28.1746 55.4846 29.2962 56.2622 30.56 56.7102C31.824 57.1583 33.1848 57.2606 34.5012 57.0073C35.1617 56.8801 35.8172 57.2471 36.0534 57.8769C37.0543 60.5434 39.2982 62.5507 42.0592 63.2497C44.8206 63.9486 47.749 63.2509 49.8983 61.3815C50.4147 60.9379 51.1779 60.9379 51.6944 61.3815C53.9378 63.2808 56.9681 63.9634 59.8094 63.2091C62.6502 62.4553 64.9436 60.3601 65.9498 57.5982C66.165 57.0081 66.7523 56.6377 67.3776 56.6979C69.6111 56.9082 71.8427 56.2768 73.6347 54.9272C75.4271 53.5775 76.6507 51.6075 77.0657 49.4027C77.4806 47.1982 77.0575 44.9179 75.8789 43.0089C75.5041 42.4008 75.6559 41.6073 76.2284 41.1805C77.9619 39.8828 79.1388 37.9767 79.5226 35.8454C79.9065 33.7146 79.4682 31.5175 78.2966 29.6968C77.1249 27.8758 75.3068 26.5667 73.2083 26.033C72.6309 25.8853 72.2135 25.3832 72.1742 24.7881C71.9917 22.0611 70.451 19.6077 68.0737 18.2589C65.6966 16.9097 62.8008 16.8455 60.366 18.0871C59.7108 18.4222 58.9083 18.184 58.5421 17.5461C56.9629 14.7862 54.1167 12.9898 50.946 12.7524C47.7753 12.5146 44.693 13.8663 42.7201 16.3602L42.7197 16.3504Z" fill="#F4F4F5"/>
<path d="M34.9422 58.2979C36.1027 61.388 38.7291 63.6944 41.9432 64.4458V70.3579V70.3575C41.9428 71.6649 41.2455 72.8731 40.1131 73.5266C38.9807 74.1805 37.5857 74.1805 36.4534 73.5266C35.3214 72.873 34.6237 71.6649 34.6233 70.3575V58.2324V58.2328C34.6691 58.1861 34.7358 58.1657 34.7996 58.1792C34.8639 58.1923 34.9167 58.2377 34.94 58.2987L34.9422 58.2979Z" fill="#E4E4E7"/>
<path d="M63.2238 62.9325C64.9908 61.7314 66.3352 60.0049 67.0665 57.9973C67.0964 57.9158 67.1778 57.8643 67.2646 57.8721C68.3622 57.9752 69.4695 57.8995 70.5429 57.6478V70.3554C70.5421 71.6621 69.8439 72.8693 68.7119 73.5224C67.58 74.1755 66.1858 74.1755 65.0539 73.5224C63.9219 72.8692 63.2242 71.662 63.2229 70.3554L63.2238 62.9325Z" fill="#E4E4E7"/>
</svg>
