<svg width="88" height="88" viewBox="0 0 88 88" fill="none" xmlns="http://www.w3.org/2000/svg">
<path d="M67.8146 21.4574C65.9731 21.3927 64.1602 21.928 62.6489 22.9826C58.9523 21.8936 55.1068 21.396 51.255 21.5082C51.2472 21.5066 51.239 21.5066 51.2308 21.5082C51.2214 21.5123 51.2132 21.5184 51.2067 21.5266C51.2009 21.5258 51.1952 21.5258 51.1895 21.5266C51.1883 21.5332 51.1883 21.5393 51.1895 21.5454C51.1883 21.5516 51.1883 21.5581 51.1895 21.5643C51.1878 21.5724 51.1878 21.581 51.1895 21.5892C51.1883 21.5954 51.1883 21.6015 51.1895 21.6076C52.6418 23.9566 54.9298 25.6684 57.593 26.3988C58.2572 26.5813 58.8047 27.0519 59.0842 27.6817C59.3641 28.3111 59.347 29.0326 59.0372 29.6481C58.0399 31.6268 56.6141 33.3577 54.8635 34.716H54.9171C53.0891 36.1335 50.7225 36.6594 48.466 36.1495C42.4099 34.7807 36.2309 34.0281 30.0238 33.9029C27.1138 33.8432 24.2672 34.7541 21.9322 36.4913C19.5975 38.2288 17.907 40.694 17.1283 43.4981C17.0563 43.9142 16.963 44.3267 16.8484 44.7331C16.7338 45.3829 16.6683 46.0405 16.6528 46.7002C16.5603 50.7278 17.7217 54.6846 19.9761 58.0239C20.4889 58.7871 20.8167 59.6592 20.9341 60.5709L23.1882 77.7917V77.7921C23.2831 78.5426 23.7558 79.1924 24.4412 79.5137C25.1263 79.835 25.9283 79.7826 26.5659 79.375C27.2035 78.9678 27.5878 78.2619 27.5845 77.5052V64.4644C27.5857 63.1352 28.229 61.8884 29.3118 61.1174C31.3997 59.6311 33.046 57.607 34.0761 55.2602C34.3019 54.7449 34.7091 54.3304 35.2203 54.0955C35.7314 53.8606 36.3113 53.8214 36.8494 53.985C41.0988 55.2851 45.4813 56.1024 49.9132 56.4208C50.5095 56.4633 50.9858 56.9347 51.0332 57.531L52.646 77.9774C52.6947 78.6113 53.0614 79.1772 53.6196 79.4809C54.1782 79.7846 54.8526 79.7846 55.4108 79.4809C55.9694 79.1773 56.3361 78.6113 56.3844 77.9774L57.9837 58.2088H57.9841C58.0152 57.8209 58.1486 57.4481 58.37 57.1285C58.5918 56.8085 58.8938 56.5527 59.2457 56.387C61.6512 55.2559 63.775 53.6046 65.4643 51.5525C67.1536 49.5006 68.3657 47.0988 69.0135 44.5207L71.4026 35.6201H71.4022C71.5164 35.1949 71.7504 34.8114 72.0766 34.5151C72.4028 34.2193 72.8067 34.0228 73.2408 33.95C75.2992 33.6022 77.2541 32.7997 78.9634 31.6014C79.8048 31.0036 80.2992 30.0309 80.2865 28.9987C80.2738 27.9667 79.7553 27.0062 78.8992 26.4292C76.4573 24.7595 73.8436 23.3572 71.1022 22.2457C70.0701 21.7661 68.9529 21.4988 67.8157 21.4591L67.8146 21.4574ZM68.793 24.3289C69.0783 24.3224 69.3541 24.4316 69.5575 24.6321C69.7608 24.8323 69.8746 25.106 69.8726 25.3917C69.873 25.672 69.7621 25.9409 69.564 26.1393C69.3655 26.3374 69.0971 26.4491 68.8168 26.4491C68.5364 26.4491 68.2676 26.3374 68.0695 26.1393C67.871 25.9409 67.7601 25.672 67.7605 25.3917C67.7569 24.8147 68.2164 24.3417 68.793 24.3289Z" fill="#E4E4E7"/>
<path d="M64.7262 20.9167C64.9967 18.2388 64.2547 15.5567 62.6464 13.3984C60.8037 11.3899 58.6753 9.66384 56.3296 8.27532C59.7352 8.69887 62.9665 10.0228 65.6903 12.1106C67.7999 14.4554 69.021 17.4652 69.1409 20.6171C67.6665 20.3671 66.1535 20.4698 64.7262 20.9171V20.9167Z" fill="#F4F4F5"/>
<path d="M78.7579 32.891V38.0089C77.9051 37.819 77.1324 37.3693 76.5465 36.7215C75.9606 36.0737 75.5897 35.2601 75.4854 34.3926C76.6324 34.0251 77.7312 33.5209 78.7579 32.8912V32.891Z" fill="#F4F4F5"/>
<path d="M64.0912 54.3569L66.4357 77.8906L66.4361 77.8902C66.5032 78.4639 66.2642 79.0311 65.8067 79.3839C65.3496 79.7362 64.7402 79.823 64.2026 79.6122C63.6649 79.401 63.2773 78.9231 63.182 78.3534L59.3107 57.5026C59.4114 57.4024 59.5284 57.3201 59.6569 57.2591C61.2635 56.5045 62.756 55.5273 64.09 54.3561L64.0912 54.3569Z" fill="#F4F4F5"/>
<path d="M36.5662 54.9005C38.6913 55.5503 40.8504 56.0823 43.034 56.4932C42.0878 59.1724 40.5651 61.6113 38.5734 63.6374C37.5986 64.6294 37.1911 66.0461 37.4893 67.4044L39.5739 76.8664H39.5743C39.7527 77.6796 39.4843 78.5263 38.8692 79.0877C38.2545 79.6492 37.387 79.8403 36.593 79.5886C35.7995 79.3369 35.2004 78.6809 35.0212 77.8678L32.3477 65.7133V59.6863C33.4276 58.4847 34.3087 57.1179 34.9573 55.6381C35.2286 55.0198 35.9202 54.7022 36.5659 54.9003L36.5662 54.9005Z" fill="#F4F4F5"/>
<path d="M8.30238 53.2348C11.4223 52.3717 14.075 50.3109 15.6832 47.5015L15.905 44.5067H15.9054C14.8238 48.297 11.8471 51.2504 8.04907 52.3025C7.80271 52.3819 7.66236 52.6409 7.73028 52.8905C7.79862 53.1402 8.05112 53.2916 8.30361 53.2347L8.30238 53.2348Z" fill="#E4E4E7"/>
</svg>
