<svg width="88" height="88" viewBox="0 0 88 88" fill="none" xmlns="http://www.w3.org/2000/svg">
<path d="M64.2054 13.6746C61.4227 13.5833 58.6666 14.2385 56.2222 15.5722C53.8528 16.5064 51.3214 16.9586 48.7751 16.9025C48.6647 17.1681 48.5509 17.4325 48.4334 17.6948C49.7127 22.3129 53.1297 26.0369 57.6205 27.7081C62.1118 29.379 67.1318 28.7942 71.1181 26.1354C71.5486 25.8478 71.914 25.4737 72.1919 25.0371C73.3385 23.2328 73.6209 21.0115 72.9624 18.9781C72.3036 16.9447 70.7723 15.3106 68.7855 14.5217C67.3086 14.0113 65.7637 13.7257 64.2017 13.6746L64.2054 13.6746ZM62.0696 18.3168C62.4269 18.3099 62.7723 18.4482 63.026 18.7003C63.2801 18.9519 63.4209 19.2961 63.4172 19.6538C63.4172 20.3842 62.8247 20.9764 62.0942 20.9764C61.3637 20.9764 60.7716 20.3842 60.7716 19.6538C60.7634 18.927 61.3428 18.3303 62.0696 18.3168Z" fill="#E4E4E7"/>
<path d="M43.669 80.1125L51.9128 74.1717C52.2357 73.9393 52.3716 73.5251 52.2492 73.1466C52.1268 72.7681 51.7745 72.5115 51.3767 72.5119H34.0722V64.7174L33.0859 64.647V73.26L42.5955 80.1121C42.9159 80.3437 43.3484 80.3437 43.6689 80.1121L43.669 80.1125Z" fill="#F4F4F5"/>
<path d="M19.4879 60.8845C27.6151 63.5886 36.2414 64.4541 44.7449 63.4185C53.2474 62.3831 61.4136 59.4723 68.6547 54.8963C71.6458 53.0052 73.858 50.1026 74.8872 46.7171C75.9168 43.3312 75.695 39.6882 74.2623 36.4525C72.83 33.2168 70.2822 30.6039 67.0837 29.0898C58.1487 33.2291 50.2349 39.2856 43.9051 46.8291C37.8494 54.4484 29.118 59.4739 19.4883 60.884L19.4879 60.8845Z" fill="#E4E4E7"/>
<path d="M63.7874 29.6099C60.3319 29.819 56.9026 28.8966 54.0184 26.9823C51.1342 25.068 48.9518 22.2663 47.8022 19.0011C45.8927 22.7553 43.2639 26.097 40.0642 28.8364L8.83884 55.5644C8.75372 55.6392 8.71075 55.751 8.72303 55.8635C8.73531 55.976 8.80201 56.0759 8.90104 56.1303C11.6187 57.6948 14.4592 59.0354 17.3937 60.1391C22.4046 59.6747 27.2696 58.2002 31.6958 55.8055C36.122 53.4103 40.017 50.1438 43.1462 46.203C48.8762 39.3726 55.8926 33.7342 63.7969 29.6097L63.7874 29.6099Z" fill="#F4F4F5"/>
<path d="M55.8056 14.6719C59.5643 12.64 63.9615 12.1363 68.0816 13.2658C66.9038 10.8882 64.8282 9.07695 62.3128 8.23226C59.7972 7.38803 57.0493 7.57954 54.6754 8.76466C52.3015 9.95015 50.4968 12.0316 49.6604 14.5495C49.5089 15.0095 49.3465 15.4658 49.1742 15.9179C51.4438 15.9208 53.6942 15.498 55.8081 14.6718L55.8056 14.6719Z" fill="#E4E4E7"/>
<path d="M73.0264 25.5693C73.8661 24.245 74.3069 22.7072 74.2958 21.139C74.2847 19.5712 73.8223 18.0395 72.9641 16.7276C76.844 19.5999 79.1758 24.1068 79.2793 28.9334V30.5748L70.8259 27.4766H70.8255C71.1075 27.3121 71.3837 27.139 71.655 26.9577C72.1989 26.5943 72.6609 26.1212 73.012 25.5692L73.0264 25.5693Z" fill="#F4F4F5"/>
</svg>
