<svg width="88" height="88" viewBox="0 0 88 88" fill="none" xmlns="http://www.w3.org/2000/svg">
<path d="M21.0393 16.6937C18.8049 16.8066 16.6839 17.711 15.0551 19.2444C14.5518 19.7179 13.8553 19.9274 13.1748 19.81C11.7154 19.5567 10.2153 19.8865 8.99698 20.7287C8.47808 21.0884 8.08686 21.6028 7.87938 22.1986C7.6719 22.7949 7.6588 23.441 7.84173 24.045C8.35081 25.7277 9.34852 27.2214 10.7083 28.3362C12.0678 29.451 13.728 30.1364 15.4782 30.3054C16.2234 30.3762 16.9326 30.6586 17.5228 31.1194C18.1125 31.5801 18.5585 32.1997 18.8078 32.9052C20.0748 36.4974 21.0147 40.196 21.6167 43.9566C22.0472 46.6407 23.4049 49.0891 25.4544 50.8749C28.0288 53.1175 29.5062 56.3642 29.5066 59.778V65.3684C29.507 65.8583 29.2005 66.2957 28.7401 66.4627C27.264 66.9967 26.1129 68.1761 25.6149 69.6648C25.4868 70.0479 25.5506 70.469 25.7863 70.7964C26.022 71.1241 26.401 71.3185 26.8045 71.3185H33.3991C34.0007 71.3185 34.5176 70.8917 34.6313 70.3012L35.8917 63.7151V55.5154C35.8909 54.9286 36.3276 54.433 36.9099 54.3598L56.1704 51.8979V51.8983C57.9419 51.6716 59.7417 51.9679 61.3471 52.7503C62.9529 53.5327 64.2952 54.7674 65.2085 56.3019C65.916 57.4919 66.9882 58.4221 68.2663 58.9545L73.783 61.2503C74.1845 61.4164 74.5274 61.6975 74.7693 62.0585C75.0107 62.4194 75.14 62.8442 75.1409 63.2784V65.3683C75.1417 65.8578 74.836 66.2952 74.376 66.4626C72.8987 66.9958 71.7463 68.1752 71.2479 69.6647C71.1194 70.0482 71.1837 70.4697 71.4202 70.7974C71.6563 71.1256 72.0365 71.3192 72.4408 71.3184H79.0322C79.7246 71.3179 80.2861 70.7569 80.2866 70.0645V59.3169C80.2861 58.949 80.1826 58.5889 79.9878 58.2771C79.7926 57.9648 79.5139 57.714 79.1833 57.5528C74.9707 55.5001 72.1646 51.3649 71.8131 46.691C71.475 42.2056 69.1502 38.1055 65.4741 35.5129C61.7985 32.9201 57.1562 32.1054 52.8168 33.2921C48.959 34.3466 44.8676 34.167 41.117 32.7781C37.3664 31.3892 34.1454 28.8605 31.9053 25.5471C31.4514 28.8697 29.4176 31.7669 26.447 33.3229C25.4832 33.8274 24.3496 33.8978 23.3311 33.5152C22.3126 33.133 21.5056 32.3342 21.1123 31.3201C20.719 30.3057 20.7767 29.1717 21.2715 28.2026L26.4372 18.0702C24.8175 17.0774 22.9358 16.5973 21.0387 16.6931L21.0393 16.6937ZM16.8537 21.5189C17.1119 21.5189 17.3591 21.6233 17.5387 21.8087C17.7188 21.994 17.8162 22.2441 17.8088 22.5023C17.8088 22.7556 17.7082 22.9991 17.5289 23.1783C17.3497 23.3576 17.1062 23.4587 16.8529 23.4587C16.5992 23.4587 16.3561 23.3576 16.1768 23.1783C15.9976 22.9991 15.8969 22.7556 15.8969 22.5023C15.8896 22.2437 15.987 21.9932 16.167 21.8082C16.3475 21.6229 16.5951 21.5185 16.8537 21.5189Z" fill="#E4E4E7"/>
<path d="M69.5702 38.1815C68.4047 36.6363 66.9688 35.3153 65.3318 34.2824C67.6972 32.5525 69.4478 30.1119 70.3289 27.317C71.2095 24.5219 71.1743 21.5186 70.2278 18.7449C70.0477 18.2187 70.256 17.6376 70.7299 17.3458C71.2034 17.0536 71.816 17.1285 72.2056 17.5259C75.0514 20.4228 76.4124 24.4647 75.8989 28.4934C75.3849 32.5218 73.0527 36.0923 69.5702 38.1818L69.5702 38.1815Z" fill="#F4F4F5"/>
<path d="M26.005 32.4856C25.2798 32.8637 24.4278 32.9153 23.6626 32.6268C22.8969 32.3387 22.2904 31.7379 21.9946 30.9755C21.6987 30.2131 21.7417 29.3607 22.1129 28.6315L27.2249 18.607C28.5185 19.5912 29.5354 20.8933 30.1771 22.3862C30.439 22.9963 30.732 23.5918 31.0557 24.1712C31.0504 25.8854 30.5773 27.5657 29.6873 29.0312C28.7972 30.4962 27.5242 31.6908 26.0051 32.4855L26.005 32.4856Z" fill="#F4F4F5"/>
</svg>
