<svg width="88" height="88" viewBox="0 0 88 88" fill="none" xmlns="http://www.w3.org/2000/svg">
<path d="M11.7039 23.2498L7.12634 30.5745H7.12675C7.05636 30.7071 7.07764 30.8696 7.17913 30.9805C8.28447 32.3943 9.79126 33.4415 11.5022 33.9846C13.2132 34.5277 15.0482 34.5416 16.7665 34.0235H16.7403C16.1633 33.6339 15.653 33.1535 15.2295 32.601C14.4969 31.0771 14.2453 29.3665 14.508 27.6965C14.7707 26.0261 15.5347 24.4755 16.6998 23.2499L11.7039 23.2498ZM12.7769 25.5816C13.004 25.5775 13.2229 25.665 13.3838 25.8246C13.545 25.9842 13.635 26.2024 13.633 26.4291C13.6334 26.6521 13.5446 26.8661 13.387 27.0237C13.2295 27.1812 13.0159 27.27 12.7928 27.27C12.5698 27.27 12.3558 27.1812 12.1982 27.0237C12.0407 26.8661 11.9523 26.6521 11.9523 26.4291C11.9486 25.9683 12.3161 25.5902 12.7769 25.5816Z" fill="#F4F4F5"/>
<path d="M79.6233 67.5464C79.7297 63.2402 79.5869 58.931 79.1957 54.6418C78.7374 50.4653 77.1655 46.4892 74.6443 43.1285C72.1235 39.7675 68.7457 37.1452 64.865 35.5361L65.2178 36.8378C68.7367 38.4514 71.7772 40.9493 74.0431 44.0881C76.3086 47.2269 77.7225 50.8993 78.1468 54.7476C78.5336 58.9937 78.6748 63.2591 78.5692 67.5213C78.5749 67.8024 78.8012 68.0295 79.0823 68.0361C79.3639 68.043 79.6008 67.8269 79.6196 67.5462L79.6233 67.5464Z" fill="#F4F4F5"/>
<path d="M8.81159 21.735C9.61572 19.2215 11.4057 17.1426 13.7719 15.9743C16.138 14.806 18.8769 14.648 21.3613 15.5377L56.2512 28.0221C59.1404 29.0559 61.5441 31.1236 62.9977 33.8257C64.4517 36.5279 64.8527 39.6731 64.1235 42.6536C63.3938 45.6344 61.5862 48.2387 59.0487 49.9644C55.5207 52.3629 52.5543 55.4979 50.3543 59.1532C48.1539 62.8084 46.7724 66.897 46.3042 71.1369C46.2846 71.317 46.1323 71.4532 45.9514 71.4532H38.4536C38.3411 71.4528 38.2355 71.3988 38.1692 71.3084C38.1025 71.2179 38.0829 71.1013 38.1156 70.9937C38.7168 69.0376 40.2027 67.4784 42.1269 66.7835V46.9542C42.1264 46.7778 42.1637 46.6035 42.2365 46.443C43.4647 43.7364 45.9359 41.7992 48.8574 41.2524C49.1381 41.1943 49.3202 40.9222 49.2674 40.6402C49.2146 40.3587 48.9462 40.1712 48.6634 40.2183C45.4059 40.8293 42.6503 42.99 41.2805 46.0081C41.1459 46.3052 41.0767 46.6276 41.0767 46.9538V49.3195C37.7821 50.3761 34.2406 50.3826 30.9419 49.3383V45.2371C31.1027 42.3448 30.1602 39.4986 28.3048 37.2731C28.1157 37.0632 27.7941 37.0403 27.5772 37.2216C27.3603 37.4028 27.3251 37.7229 27.4978 37.9467C29.1879 39.9756 30.0424 42.5714 29.888 45.2072V66.1387C29.888 66.5123 30.0362 66.8704 30.3005 67.1343C30.5649 67.3983 30.9234 67.5464 31.297 67.5456H34.7034C34.809 67.5448 34.9101 67.591 34.978 67.672C35.0464 67.7527 35.075 67.8599 35.0562 67.9642C34.8119 69.313 33.9828 70.4843 32.792 71.1636C31.6016 71.8425 30.1708 71.9595 28.8855 71.4832C27.6005 71.0068 26.5917 69.9858 26.1314 68.6943C23.7992 62.1524 22.7868 55.2135 23.1535 48.2772C20.5168 46.112 18.5849 43.2106 17.6039 39.9429C17.6714 38.0024 17.7791 36.0631 17.9272 34.1269C17.9546 33.7771 17.7864 33.4407 17.4897 33.2528C16.9725 32.9291 16.5137 32.5199 16.1332 32.0431C15.4944 30.6615 15.3049 29.1152 15.5905 27.6202C15.8762 26.1257 16.6234 24.7581 17.7263 23.7097C17.987 23.4621 18.0701 23.0807 17.9371 22.7472C17.8037 22.4132 17.4804 22.1943 17.1211 22.1947H9.15381C9.04046 22.1943 8.93365 22.1403 8.86694 22.0486C8.80024 21.9574 8.78101 21.8391 8.81579 21.7315L8.81159 21.735Z" fill="#E4E4E7"/>
<path d="M63.4731 67.2602C63.8766 67.4104 64.1483 67.791 64.1594 68.2215C64.1704 68.6524 63.9184 69.0461 63.5226 69.2167C62.6195 69.5936 61.8731 70.2684 61.4074 71.1295C61.3481 71.2395 61.3509 71.3725 61.4152 71.4802C61.4794 71.5874 61.5956 71.6533 61.7209 71.6529H70.1857C70.8679 71.6525 71.4208 71.0992 71.4208 70.417V69.1897C71.4208 68.7105 71.1441 68.2747 70.7108 68.0708C68.1907 66.8882 66.0276 65.0614 64.4398 62.775C62.8521 60.4883 61.8961 57.8229 61.6686 55.0488V49.1633C61.0563 49.7841 60.3852 50.3436 59.6646 50.8342C57.837 52.0761 56.1604 53.526 54.6684 55.1556C54.8255 57.8073 55.7418 60.3576 57.3071 62.5037C58.8724 64.6496 61.0217 66.3005 63.4988 67.2597L63.4731 67.2602Z" fill="#F4F4F5"/>
<path d="M26.2628 70.9427C24.5739 71.1424 22.8744 70.6759 21.524 69.643C20.1735 68.6097 19.279 67.0915 19.0297 65.4096C17.9162 57.897 17.4145 50.306 17.5299 42.7119C18.6062 45.0194 20.1543 47.0762 22.074 48.7492C21.7765 55.6504 22.8159 62.5442 25.1355 69.051C25.3843 69.7487 25.7673 70.3912 26.2629 70.942L26.2628 70.9427Z" fill="#F4F4F5"/>
</svg>
