<svg width="88" height="88" viewBox="0 0 88 88" fill="none" xmlns="http://www.w3.org/2000/svg">
<path d="M31.5041 9.60668C30.6415 9.61446 29.8086 9.9267 29.1539 10.4882C28.4991 11.05 28.0637 11.8255 27.925 12.6772C28.0654 12.7709 28.2 12.8732 28.3277 12.9837C28.7247 13.3274 28.9837 13.8025 29.0582 14.3222C30.008 14.3431 30.9353 14.6177 31.7431 15.1173C32.5513 15.617 33.2115 16.3238 33.6546 17.1643C34.0225 16.4076 34.4051 15.6587 34.8012 14.9168C35.3778 13.7775 35.3185 12.4197 34.6449 11.3349C33.9709 10.2501 32.7805 9.59492 31.5037 9.60676L31.5041 9.60668ZM31.2868 10.7136C31.4382 10.7115 31.5843 10.7709 31.6915 10.8781C31.7983 10.9853 31.8577 11.1314 31.856 11.2828C31.8577 11.433 31.7992 11.5775 31.6936 11.6843C31.588 11.7907 31.4444 11.8508 31.2942 11.8508C31.144 11.8508 30.9999 11.7907 30.8948 11.6843C30.7892 11.5775 30.7307 11.433 30.7323 11.2828C30.7282 10.9743 30.9738 10.7201 31.2823 10.7136H31.2868Z" fill="#27272A" fill-opacity="0.8"/>
<path d="M38.3441 50.5465C38.2495 50.6734 38.268 50.8514 38.3862 50.9566C38.5045 51.0613 38.6837 51.0584 38.7983 50.9496C39.5722 50.0648 39.909 48.8797 39.715 47.72C39.521 46.5607 38.8175 45.5494 37.7977 44.9646C36.7779 44.3803 35.5494 44.2837 34.4511 44.7023C33.3528 45.121 32.4999 46.0102 32.1275 47.125C32.0804 47.2841 32.168 47.4515 32.3256 47.5035C32.4827 47.5555 32.6529 47.4728 32.7094 47.3173C33.0229 46.374 33.7431 45.6214 34.6716 45.2667C35.6001 44.9123 36.6387 44.9937 37.501 45.4881C38.3628 45.9824 38.9574 46.8381 39.1203 47.8182C39.2832 48.7987 38.9975 49.8005 38.3416 50.5474L38.3441 50.5465Z" fill="#27272A" fill-opacity="0.8"/>
<path d="M32.645 22.1957C31.9105 23.2221 31.3297 24.3507 30.9218 25.5453C30.8895 25.6435 30.8575 25.7413 30.826 25.8395C31.225 30.7576 33.9304 35.1953 38.1184 37.8033C44.1132 41.215 50.6123 43.6515 57.3726 45.022C55.3969 42.0634 53.2111 39.2503 50.8323 36.6042C47.1783 31.0076 42.7534 25.9541 37.6889 21.5918C36.9564 20.9612 35.9923 20.6678 35.0322 20.7836C34.0726 20.899 33.2054 21.413 32.6435 22.1996L32.645 22.1957Z" fill="#27272A"/>
<path d="M32.3852 21.5441C33.0874 20.7342 34.0822 20.2363 35.1511 20.1581C36.22 20.0804 37.2766 20.429 38.089 21.1284C43.1843 25.5174 47.6375 30.6007 51.3173 36.2288C51.4175 36.3393 51.5178 36.4502 51.6176 36.5611C51.5726 34.0444 51.1331 31.5505 50.315 29.17C48.9997 25.1747 47.3231 21.3079 45.3053 17.6179C43.8923 14.7386 42.0594 12.0855 39.8663 9.74556C36.8118 7.60821 32.8972 7.12285 29.413 8.44914C27.6604 8.8645 26.1109 9.88595 25.0388 11.3333C24.7667 11.6984 24.666 12.1637 24.7638 12.6085C24.7843 12.6453 24.8055 12.6813 24.828 12.7169C25.1174 12.4366 25.4795 12.2418 25.8732 12.1551C26.2669 12.0679 26.6769 12.0921 27.058 12.2246C27.175 12.266 27.2904 12.313 27.4034 12.3654C27.6587 11.1623 28.4211 10.1278 29.4945 9.52743C30.5683 8.92709 31.8484 8.81906 33.0073 9.23115C34.1662 9.64324 35.0911 10.5349 35.5449 11.6783C35.9988 12.8217 35.937 14.105 35.3759 15.1996C34.2787 17.2601 33.2925 19.3779 32.4213 21.5439L32.3852 21.5441Z" fill="#27272A" fill-opacity="0.8"/>
<path d="M61.336 57.7228C55.9032 55.9533 50.7708 53.3679 46.1152 50.0555C41.3202 46.9953 37.1155 43.097 33.7009 38.5474C30.9309 35.5731 29.7191 31.4702 30.4288 27.4678C31.2444 31.9664 33.9244 35.9101 37.8063 38.3243C44.038 41.8718 50.8083 44.3747 57.8494 45.7337C59.8959 48.8753 61.7022 52.1676 63.2523 55.5818C63.4214 55.9538 63.4389 56.3765 63.301 56.7612C63.1627 57.1455 62.8804 57.461 62.5137 57.6402C62.147 57.8199 61.7247 57.8493 61.3364 57.7221L61.336 57.7228Z" fill="#27272A" fill-opacity="0.8"/>
<path d="M33.3207 17.8754C32.9745 17.023 32.3864 16.29 31.6293 15.7675C30.8722 15.2445 29.9789 14.9544 29.059 14.9323C29.0385 15.0828 29.0021 15.231 28.9505 15.3738C28.5704 16.4238 28.5061 17.5624 28.7652 18.6485C30.2232 19.2128 31.8638 19.0413 33.1742 18.1881C33.2208 18.0858 33.2679 17.9835 33.3149 17.8812L33.3207 17.8754Z" fill="#27272A"/>
<path d="M45.3222 80.147C47.6671 77.6434 48.9107 74.3042 48.774 70.8764C48.4855 71.7812 48.1495 72.6709 47.7669 73.5405C47.6053 73.9129 47.2067 74.1237 46.8081 74.0468C46.4091 73.9702 46.1169 73.6265 46.1055 73.2205C46.0118 70.2103 45.6295 67.216 44.9641 64.2786C44.6506 62.3081 44.2381 60.3549 43.7286 58.4258C44.7488 65.508 45.0267 72.6777 44.5565 79.8161C44.5463 80.0019 44.6527 80.1746 44.8237 80.2487C44.9944 80.3232 45.1932 80.2831 45.3222 80.1484L45.3222 80.147Z" fill="#27272A" fill-opacity="0.8"/>
<path d="M47.208 73.2955C48.3456 70.713 49.0606 67.9641 49.3253 65.1548C49.8806 61.2176 50.0926 57.2399 49.9584 53.2664C48.5257 52.4259 47.1302 51.5231 45.7765 50.5606C43.54 49.1328 41.426 47.5217 39.456 45.7448C42.4748 51.5125 44.537 57.7327 45.5616 64.162C46.2344 67.1309 46.6211 70.1572 46.7164 73.1998C46.7209 73.3197 46.8069 73.4208 46.9247 73.4437C47.0422 73.4666 47.16 73.4052 47.2091 73.296L47.208 73.2955Z" fill="#27272A"/>
<path d="M28.817 20.4266C27.9106 18.8204 27.7494 16.8986 28.3754 15.164C28.4839 14.8656 28.4986 14.5415 28.4188 14.2346C28.339 13.9273 28.168 13.6519 27.9277 13.444C27.602 13.162 27.2251 12.9447 26.8179 12.804C26.3997 12.6595 25.9405 12.698 25.5526 12.9104C25.1646 13.1223 24.8843 13.4886 24.7804 13.9183C24.5758 14.7637 24.552 15.6423 24.71 16.4976C25.5031 18.2773 26.8679 19.742 28.5874 20.6587C28.6533 20.6955 28.7356 20.684 28.7892 20.6304C28.8428 20.5772 28.8542 20.495 28.8174 20.4287L28.817 20.4266Z" fill="#27272A" fill-opacity="0.8"/>
</svg>
