<svg width="88" height="88" viewBox="0 0 88 88" fill="none" xmlns="http://www.w3.org/2000/svg">
<path d="M23.7863 23.2749C23.765 23.2679 23.7417 23.2679 23.7204 23.2749C20.1823 26.1685 18.2912 30.6159 18.6628 35.1716C18.6755 35.3292 18.6252 35.4859 18.5225 35.6062C18.4201 35.7265 18.2736 35.8014 18.1157 35.8137C17.9577 35.826 17.8018 35.7748 17.6815 35.6717C17.5616 35.5686 17.4875 35.4217 17.4761 35.2637C17.4049 34.4199 17.4049 33.5716 17.4761 32.7281C14.1933 33.7639 11.4232 36.0032 9.72243 38.9963C8.26069 41.1586 7.35911 43.65 7.09846 46.2469C7.08087 46.3627 7.08087 46.4802 7.09846 46.5956C7.29653 47.5503 7.78392 48.4212 8.49431 49.0894C9.20431 49.7581 10.1029 50.1915 11.0683 50.3311C13.8277 50.3348 16.5274 49.5274 18.8321 48.01C19.6718 47.539 20.6495 47.3769 21.596 47.5516C22.5426 47.7268 23.3978 48.2281 24.0129 48.9683C24.5085 46.9795 25.6592 45.2158 27.2798 43.961C27.5388 43.7654 27.9076 43.815 28.106 44.0719C28.3045 44.3289 28.2591 44.6981 28.0041 44.899C26.3824 46.1537 25.3089 47.9871 25.009 50.0156C24.7892 51.4957 24.0072 52.8339 22.8257 53.7518C21.6443 54.6701 20.1543 55.0969 18.666 54.9443C17.4575 54.8203 16.2364 54.9525 15.0828 55.3326C14.0328 55.8667 13.2134 56.7649 12.778 57.8592C12.3426 58.9538 12.3209 60.1697 12.7175 61.2791C13.1136 62.3881 13.901 63.3151 14.9314 63.8855C15.2706 64.0742 15.6664 64.136 16.0469 64.0598C16.4275 63.9837 16.7684 63.7742 17.009 63.4693C17.2492 63.1649 17.3732 62.7843 17.3589 62.3964C17.3585 62.3567 17.3585 62.3174 17.3589 62.2777C17.3499 61.5853 17.6494 60.9244 18.1761 60.4746C18.7028 60.0249 19.4021 59.8321 20.0848 59.9492C21.7548 60.2365 23.3667 60.7946 24.8572 61.6016C26.659 62.1639 28.6184 61.8909 30.198 60.8568C30.191 56.1543 32.6447 51.7908 36.6666 49.3539C36.9428 49.2123 37.2821 49.3081 37.4429 49.5737C37.6041 49.8397 37.5321 50.1847 37.2784 50.3639C33.9293 52.3933 31.753 55.9024 31.4236 59.8047C31.0941 63.7067 32.6513 67.5309 35.6128 70.0931C36.0953 70.5105 36.3854 71.1068 36.4165 71.7439C36.4476 72.3807 36.2164 73.0028 35.7769 73.4648C35.3374 73.9268 34.7276 74.1887 34.09 74.1895H29.1572C27.8129 74.1895 26.5083 74.6437 25.4549 75.4786C24.4015 76.3138 23.6613 77.4801 23.3543 78.7889C23.3113 78.9751 23.3555 79.1711 23.4746 79.3208C23.5937 79.4706 23.775 79.5574 23.9661 79.557H47.2987C48.0766 79.5566 48.8218 79.2419 49.3649 78.6845C49.9083 78.1271 50.2038 77.3741 50.1846 76.5962C50.1723 76.1231 50.081 75.6554 49.9149 75.2122C49.6829 74.5922 49.7258 73.9027 50.0323 73.3158C50.3393 72.7289 50.8807 72.3001 51.5224 72.1364C54.6706 71.3286 57.5282 69.6528 59.7707 67.3006C62.0128 64.9479 63.5495 62.0129 64.2055 58.83C64.8615 55.6471 64.6106 52.3438 63.4811 49.2963C62.6369 45.7372 60.7552 42.5093 58.0745 40.0208C55.3937 37.5322 52.0347 35.8958 48.4229 35.3183C44.811 34.7409 41.1092 35.2483 37.7864 36.7768C36.8333 37.2151 35.7996 37.4504 34.7507 37.4668C31.5984 37.5171 28.5255 36.4801 26.0486 34.5298C25.7519 35.171 25.3979 35.7841 24.9915 36.3618C24.7955 36.6037 24.4456 36.6524 24.1911 36.4731C23.9365 36.2939 23.8645 35.9485 24.0257 35.6825C25.3029 33.8599 25.9724 31.6811 25.9393 29.4557C25.9066 27.2303 25.1724 25.0724 23.8417 23.2887C23.8278 23.2527 23.7946 23.2269 23.7561 23.2228L23.7863 23.2749ZM15.4921 40.0804C15.7757 40.0754 16.0499 40.1851 16.2512 40.3852C16.453 40.5849 16.5655 40.8575 16.563 41.1415C16.5659 41.4226 16.4566 41.6931 16.259 41.8932C16.0613 42.0929 15.7921 42.2055 15.5109 42.2055C15.2298 42.2055 14.9601 42.0929 14.7624 41.8932C14.5648 41.6931 14.4555 41.4226 14.4588 41.1415C14.4539 40.5641 14.9147 40.091 15.4921 40.0804Z" fill="#27272A" fill-opacity="0.8"/>
<path d="M41.6932 34.3086C46.6735 33.315 51.8453 34.2878 56.1242 37.0222C60.4035 39.757 63.4583 44.042 64.6487 48.9786C65.8056 52.1387 66.0806 55.5545 65.4439 58.8589C64.8067 62.1634 63.2823 65.2327 61.034 67.7367C58.7857 70.2407 55.8978 72.0855 52.6805 73.073C55.8528 74.1157 59.2355 74.3482 62.5204 73.7487C65.8053 73.1491 68.8879 71.7373 71.4869 69.6413C74.3228 67.3181 76.5421 64.3319 77.9491 60.9473C79.3564 57.5622 79.9076 53.8828 79.5544 50.2343C79.3977 45.7496 77.9712 41.4016 75.4409 37.6954C72.9107 33.989 69.3806 31.0769 65.2609 29.2972C60.3616 27.2937 55.7304 24.689 51.4743 21.5425C49.3221 19.9518 47.8379 17.6184 47.3083 14.9953C46.7792 12.3717 47.2428 9.64549 48.6097 7.34481C48.6289 7.31207 48.6289 7.27156 48.6101 7.23882C48.5908 7.20609 48.5552 7.18603 48.5176 7.18685C45.0887 7.23514 41.8444 8.75053 39.6066 11.349C37.3686 13.9472 36.3513 17.3802 36.812 20.7785C37.2126 25.6413 38.897 30.3101 41.6933 34.3085L41.6932 34.3086Z" fill="#27272A"/>
<path d="M19.5257 26.4085C18.607 27.9697 17.9768 29.684 17.6653 31.4691C16.4013 31.8169 15.1882 32.3309 14.0592 32.9976C12.6956 29.4672 13.0107 25.5083 14.9157 22.2385C14.9341 22.1841 14.9926 22.1542 15.0475 22.1722C16.9692 23.0373 18.5467 24.5203 19.5282 26.3856L19.5257 26.4085Z" fill="#27272A"/>
</svg>
