<svg width="88" height="88" viewBox="0 0 88 88" fill="none" xmlns="http://www.w3.org/2000/svg">
<path d="M50.2544 50.9247C49.3733 51.1481 48.4844 51.3409 47.5899 51.5017C49.0561 53.3241 50.9308 54.7747 53.0624 55.7372C53.3595 55.8723 53.5727 56.1432 53.6341 56.4636C53.6955 56.7845 53.5969 57.1151 53.3702 57.35L50.0779 60.7654L50.0783 60.765C49.4035 61.466 48.6264 62.0598 47.7731 62.5271C47.235 61.7766 46.3936 61.3011 45.4729 61.227C44.936 61.3997 44.5898 61.9211 44.6393 62.4833C44.6663 63.0599 44.8996 63.6079 45.2965 64.0273C46.4763 64.9129 47.855 65.4957 49.3122 65.7252C50.2878 65.6082 51.1958 65.1662 51.8903 64.4705L57.0617 59.2888H57.0613C57.7533 58.5936 58.0393 57.5918 57.8183 56.6363C57.5397 56.5 57.2647 56.3555 56.9942 56.2029C55.5333 55.1626 54.3137 53.8196 53.4187 52.2653C53.109 51.7272 52.6318 51.3053 52.0601 51.0634C51.488 50.8215 50.8532 50.7732 50.2513 50.9251L50.2544 50.9247Z" fill="#27272A" fill-opacity="0.8"/>
<path d="M27.2506 65.8135C26.9842 66.427 27.0652 67.1353 27.463 67.6726C28.3175 68.0745 29.2771 68.1969 30.2057 68.0225C31.1338 67.8478 31.9838 67.3854 32.6341 66.7007L34.2203 64.5286C34.4163 64.2614 34.4977 63.927 34.4461 63.5997C33.8294 59.7419 33.9268 55.8039 34.7338 51.9816C32.8776 52.7914 30.9611 53.456 29.0018 53.9692C29.2563 55.5902 29.7523 57.1636 30.473 58.6376C31.0749 59.8702 31.1637 61.291 30.7193 62.5891C30.4836 63.2791 30.2823 63.9809 30.1169 64.6917C29.5874 64.476 28.9948 64.4728 28.4624 64.6815C27.93 64.8902 27.4983 65.2957 27.256 65.8138L27.2506 65.8135Z" fill="#27272A" fill-opacity="0.8"/>
<path d="M17.8431 43.9403C17.4036 44.8942 17.1294 45.916 17.0332 46.9616C16.3032 44.3458 16.261 41.5856 16.9101 38.9481C17.0336 38.4448 16.9579 37.9136 16.6989 37.4647C16.4399 37.0158 16.0179 36.6843 15.5203 36.5395C16.4415 36.1151 17.2345 35.4558 17.8197 34.628C18.4053 33.8001 18.7626 32.8327 18.8555 31.8228C18.9247 31.6169 18.8309 31.3918 18.6366 31.2953C18.4422 31.1987 18.2061 31.2605 18.0841 31.4401C17.8644 31.7642 17.6176 32.0687 17.3463 32.3507C17.8713 31.0403 17.9581 29.5949 17.5926 28.2314C17.5525 28.0812 17.4351 27.9634 17.2845 27.9233C17.1343 27.8832 16.9739 27.9265 16.8642 28.037C16.6191 28.2817 16.401 28.5527 16.214 28.844C16.1067 28.1794 15.9062 27.5328 15.6181 26.9244C15.2478 26.5258 15.0112 26.0208 14.9425 25.4811C14.8737 24.9409 14.976 24.3933 15.2351 23.9146C15.3161 23.7644 15.3018 23.5806 15.1987 23.4448C15.0951 23.3089 14.922 23.2459 14.7559 23.2839C13.4079 23.5851 12.1573 24.2194 11.1187 25.1295C11.374 24.2292 11.8639 23.4128 12.5383 22.7642C13.2127 22.1152 14.0475 21.6573 14.9568 21.4371C15.1516 21.3896 15.2887 21.2153 15.2887 21.0148C15.2887 20.8142 15.1516 20.6399 14.9568 20.5924C13.9583 20.3481 12.9221 20.2966 11.9044 20.4419C13.5986 19.58 15.5858 19.5068 17.3385 20.2417C19.4153 19.4712 21.6861 19.3934 23.8108 20.0195C25.9354 20.6461 27.8007 21.9433 29.1274 23.7173C29.7159 24.5038 30.5744 25.0457 31.5378 25.238C32.4888 25.4279 33.3728 25.8666 34.0991 26.5091C34.8259 27.1516 35.3689 27.9749 35.6738 28.8957C36.7755 32.0136 36.8327 35.4049 35.8383 38.5583C35.7311 37.6666 35.4921 36.7954 35.1291 35.974C35.0415 35.7809 34.8275 35.679 34.6225 35.733C34.4175 35.7866 34.2812 35.9806 34.3 36.1917C34.5734 39.0231 33.9248 41.8673 32.4504 44.3001C32.6206 43.0855 32.5719 41.8505 32.3067 40.6531C32.2625 40.4424 32.0706 40.2955 31.8557 40.3081C31.6409 40.3204 31.4674 40.4886 31.4482 40.703C31.1834 43.3086 30.1923 45.7877 28.5872 47.8571C28.6388 47.1586 28.5361 46.4568 28.286 45.802C28.214 45.6199 28.0286 45.5082 27.8338 45.5295C27.639 45.5512 27.4827 45.7005 27.4524 45.8945C27.2147 47.5101 26.6025 49.0476 25.665 50.3845C25.3773 49.4441 25.1375 48.4893 24.946 47.5244C24.9046 47.321 24.7254 47.1753 24.5175 47.1765C24.31 47.1774 24.132 47.3255 24.0932 47.5293C23.7408 49.4007 23.0488 51.1919 22.052 52.8144C21.7892 52.1425 21.7066 51.4137 21.8122 50.6999C22.2419 49.232 22.2795 47.677 21.9218 46.1898C21.8744 45.9774 21.6771 45.8326 21.4602 45.8514C21.2433 45.8702 21.0735 46.0466 21.0633 46.2639C20.9953 47.3319 20.722 48.3771 20.2583 49.3417C20.2567 49.0503 20.2338 48.7598 20.1896 48.4721C19.8098 46.9076 19.2688 45.3869 18.5748 43.9346C18.5019 43.7832 18.3481 43.6875 18.1803 43.6887C18.0121 43.6899 17.8599 43.7881 17.7891 43.9403L17.8431 43.9403Z" fill="#27272A" fill-opacity="0.8"/>
<path d="M31.4538 45.5556C31.7173 44.6545 31.8466 43.7191 31.8368 42.7799C31.2537 45.169 30.0804 47.3735 28.4251 49.192C28.288 49.3475 28.0605 49.3848 27.8809 49.2812C27.7016 49.1773 27.6206 48.9612 27.6873 48.7648C27.8334 48.3171 27.9005 47.8473 27.8858 47.3767C27.4909 48.7959 26.8197 50.123 25.9112 51.2823C25.8122 51.4072 25.6526 51.4673 25.4954 51.4395C25.3387 51.4117 25.2094 51.2999 25.159 51.1489C24.9205 50.4172 24.7105 49.6769 24.5292 48.9292C24.073 50.6083 23.3515 52.2039 22.3919 53.6549C22.3084 53.7839 22.1627 53.8591 22.0093 53.8526C21.8558 53.8461 21.7171 53.7593 21.6446 53.6238C21.1348 52.6826 20.9494 51.5998 21.1172 50.5432C21.3357 49.8111 21.4486 49.052 21.4527 48.2884C21.1155 49.4384 20.5532 50.5097 19.799 51.4407C19.7589 51.4886 19.7131 51.5316 19.662 51.5676C17.8524 52.8984 16.731 54.9674 16.6046 57.2099C16.4875 57.6089 16.544 58.0382 16.7601 58.393C16.9766 58.7482 17.3322 58.9954 17.7402 59.074C17.8982 59.5773 18.2022 60.0221 18.6135 60.352C19.0248 60.6822 19.5248 60.8827 20.0503 60.9277C20.9322 60.7194 21.652 60.0851 21.9695 59.236C22.2871 58.3873 22.1606 57.4362 21.6319 56.7001C21.3213 56.2675 21.2661 55.7016 21.4866 55.2171C21.7072 54.7325 22.1704 54.4027 22.7008 54.3532C26.8381 53.962 30.8841 52.9017 34.6814 51.2132C35.0137 51.0654 35.38 51.0122 35.7404 51.0601C40.528 51.6948 45.3925 51.4108 50.074 50.2232C50.8294 50.0313 51.6269 50.0919 52.3448 50.3951C53.063 50.6988 53.6621 51.2283 54.0512 51.9039C54.8889 53.3575 56.0278 54.6146 57.3918 55.5914C58.696 56.3243 60.1029 56.8563 61.5655 57.1698C62.2923 57.3261 62.9384 57.7394 63.3857 58.3331C63.8326 58.9273 64.0507 59.6624 64 60.4043C63.8658 62.371 63.1296 64.2489 61.8917 65.7836C61.108 65.295 60.1492 65.1763 59.2702 65.4587C58.8393 65.8221 58.7173 66.4355 58.976 66.9363C59.2215 67.4597 59.6463 67.878 60.1742 68.1141C61.6008 68.484 63.0961 68.4991 64.53 68.1578C65.3886 67.6782 66.0605 66.9241 66.4378 66.016L68.8289 60.2549C69.0254 59.781 69.09 59.263 69.0168 58.7556C68.9431 58.2481 68.734 57.7697 68.4115 57.3711C66.8397 55.4277 65.7478 53.1418 65.224 50.6979C65.2654 47.1577 64.9507 43.6228 64.2849 40.1452C63.9702 38.5026 63.1271 37.0082 61.8839 35.8889C63.7173 36.7286 65.258 38.097 66.3084 39.8187C67.3585 41.5399 67.8709 43.5361 67.7788 45.5503C67.8831 47.6779 68.7241 49.7028 70.158 51.2775C71.592 52.8526 73.5293 53.8797 75.6376 54.1825C76.3165 54.6523 77.1288 54.8901 77.9538 54.8602C78.7788 54.8299 79.5718 54.534 80.2148 54.016C80.2602 53.9844 80.2872 53.9325 80.2872 53.8772C80.2872 53.822 80.2602 53.77 80.2148 53.7385C79.409 53.2601 78.5001 52.9831 77.5646 52.9311C76.8697 52.9426 76.1872 53.1148 75.5705 53.4353C73.6733 53.1189 71.9407 52.165 70.6589 50.7307C69.3772 49.2968 68.6234 47.4679 68.5215 45.5474C68.6345 42.8891 67.7665 40.2819 66.0822 38.2223C64.3978 36.1627 62.0153 34.7937 59.3873 34.3768C58.9641 34.2233 58.5279 34.1079 58.0839 34.031C54.3612 33.3856 50.5476 33.4785 46.8608 34.3047C44.1836 34.9043 41.38 34.5355 38.9488 33.2641C38.3935 32.9739 37.8186 32.7223 37.2284 32.5111C37.4707 35.1367 37.059 37.7812 36.0302 40.2087C35.9475 40.4014 35.7392 40.5078 35.5346 40.4612C35.33 40.415 35.188 40.2288 35.1966 40.0192C35.2244 39.4328 35.19 38.8447 35.0938 38.2653C34.9343 41.0542 33.9391 43.7305 32.2378 45.9464C32.1106 46.113 31.8826 46.1654 31.6956 46.0704C31.5086 45.9759 31.4161 45.7611 31.475 45.5601L31.4538 45.5556Z" fill="#27272A"/>
<path d="M11.969 36.8029C12.4122 37.1524 13.0179 37.2125 13.5216 36.9576C15.1356 36.1395 16.4787 34.8722 17.3888 33.3081C17.14 33.5254 16.8777 33.7263 16.6027 33.9097C16.4279 34.0279 16.1934 34.0038 16.0465 33.852C15.8996 33.7005 15.8832 33.4652 16.0072 33.2942C16.9026 32.0432 17.2644 30.4873 17.0135 28.9695C16.7668 29.2973 16.5707 29.6599 16.4316 30.0457C16.36 30.2434 16.1578 30.3612 15.9508 30.3265C15.7437 30.2917 15.5911 30.1137 15.5882 29.9037C15.5767 29.0141 15.3811 28.1367 15.0132 27.3268C14.2562 26.4498 14.0098 25.2418 14.363 24.1385C14.0344 24.0836 13.7021 24.2084 13.4905 24.4654C12.6594 25.1398 12.2203 26.1858 12.3214 27.2515C10.5121 28.1248 8.98941 29.4957 7.93121 31.2034C7.61037 31.7223 7.64884 32.3865 8.02737 32.8648C9.18384 34.3274 10.5077 35.6488 11.9714 36.8032L11.969 36.8029Z" fill="#27272A"/>
</svg>
