<svg width="88" height="88" viewBox="0 0 88 88" fill="none" xmlns="http://www.w3.org/2000/svg">
<path d="M69.6991 8.67748C66.131 12.9899 64.1377 18.3892 64.0484 23.9863C64.0431 24.2053 63.8614 24.3784 63.6425 24.3735C63.4235 24.3681 63.25 24.1864 63.2554 23.9675C63.2709 23.1315 63.3278 22.2967 63.4256 21.4663C60.8945 23.7118 58.9925 26.5776 57.9063 29.7822C57.2098 31.499 56.0526 32.9897 54.5625 34.0906C53.0725 35.1914 51.3076 35.8592 49.4619 36.0205H22.3244C19.2416 36.0205 16.2956 37.2931 14.1824 39.5373C12.0691 41.782 10.9761 44.7992 11.161 47.8762C11.3464 50.9536 12.7938 53.8177 15.1613 55.7922L19.0624 59.0447C19.6725 59.5534 20.1362 60.216 20.4054 60.9636C20.6747 61.7116 20.7398 62.5174 20.5937 63.2986C20.2978 64.8868 19.7981 66.43 19.107 67.8901C18.9466 68.2294 18.9073 68.6136 18.9953 68.9787L21.1015 77.7246C21.2386 78.2656 21.6446 78.6982 22.1762 78.8692C22.7073 79.0403 23.2893 78.9265 23.7169 78.5672C24.1441 78.2083 24.3569 77.6547 24.28 77.1018L23.2492 70.2726C23.0163 68.7331 23.3433 67.1609 24.1707 65.8419C26.6945 61.8238 28.4606 57.3775 29.3818 52.7226C29.428 52.5126 29.6339 52.378 29.8446 52.4202C30.0554 52.4623 30.1937 52.6653 30.1557 52.8769C29.8782 54.2834 29.5242 55.6735 29.0962 57.0412C32.5272 58.0867 36.1349 58.4215 39.6992 58.0253C43.2635 57.6288 46.71 56.5095 49.8275 54.736C49.8337 52.5929 50.2658 50.4723 51.099 48.4973H51.0724C51.1076 48.3938 51.1846 48.3091 51.2844 48.2641C51.3843 48.2191 51.498 48.2178 51.5991 48.26C51.7002 48.3026 51.7792 48.3852 51.8168 48.4879C51.8545 48.5907 51.8479 48.7048 51.7984 48.8022C50.3407 52.2635 50.2004 56.1384 51.4035 59.6964C51.6044 60.2898 51.6662 60.9216 51.5831 61.5428L50.7131 68.0061L53.7439 77.7859C53.9964 78.5315 54.6217 79.0905 55.3911 79.2579C56.1604 79.4257 56.9612 79.1777 57.5011 78.6043C58.0408 78.0314 58.2405 77.2171 58.0273 76.4588L55.3752 67.9027C55.0732 66.93 55.1468 65.8795 55.5806 64.9584L60.9877 53.4796C61.4816 52.4291 61.6666 51.2599 61.5205 50.1084C61.3359 48.6462 61.5086 47.1607 62.0247 45.78C63.2258 42.875 64.9571 40.2182 67.1297 37.9462C65.508 36.9277 64.2659 35.4049 63.5944 33.6117C63.551 33.5123 63.5502 33.3993 63.5924 33.2991C63.6345 33.1992 63.716 33.121 63.8178 33.083C63.9193 33.0449 64.0323 33.0507 64.1297 33.0981C64.2271 33.146 64.3007 33.2319 64.3331 33.3355C65.1761 35.5846 66.9914 37.3312 69.2712 38.0874C71.3714 38.9259 73.557 39.5332 75.789 39.8982C76.5698 40.0136 77.3669 39.9178 78.0983 39.6207C78.8295 39.3236 79.4675 38.8362 79.9468 38.2093C80.1526 37.9408 80.2705 37.6155 80.2844 37.2775C80.2979 36.9394 80.207 36.6055 80.0241 36.3215C78.3565 33.7377 76.3501 31.3891 74.0585 29.3381C72.6474 26.7039 70.7097 24.3885 68.3661 22.5347C68.166 22.9518 67.954 23.3626 67.7302 23.7674C67.6189 23.9458 67.3877 24.0059 67.2039 23.9041C67.0198 23.8022 66.9477 23.5742 67.0398 23.3856C69.5176 18.9066 70.4519 13.7368 69.6986 8.67386L69.6991 8.67748ZM68.171 28.2822C68.4125 28.2781 68.6453 28.3722 68.8168 28.5429C68.9878 28.7135 69.0828 28.946 69.0795 29.1878C69.0795 29.6814 68.6793 30.082 68.1853 30.082C67.6914 30.082 67.2912 29.6814 67.2912 29.1878C67.2846 28.6951 67.6783 28.29 68.171 28.2822Z" fill="#27272A" fill-opacity="0.8"/>
<path d="M70.6974 13.9596C71.9406 12.6554 73.3893 11.5631 74.9857 10.7271C74.5327 15.2147 72.9577 19.5161 70.4057 23.2347C69.8712 22.7293 69.3126 22.2501 68.7316 21.7987C69.8234 19.3151 70.488 16.6645 70.6975 13.9592L70.6974 13.9596Z" fill="#27272A"/>
<path d="M49.4288 35.2365H43.709C46.628 32.0565 49.7316 29.0507 53.0038 26.2352C55.7117 23.777 58.9974 22.0435 62.5556 21.1968C60.0986 23.4799 58.2473 26.337 57.1669 29.5118C56.5248 31.0833 55.4636 32.448 54.0993 33.4572C52.7346 34.4667 51.1194 35.0823 49.4288 35.2365Z" fill="#27272A"/>
<path d="M9.06189 57.1927C9.11959 57.403 8.99642 57.6203 8.78608 57.678C8.57573 57.7357 8.35844 57.6125 8.30074 57.4022C6.94124 52.4522 7.97417 47.1514 11.0929 43.075C10.8129 43.8369 10.6108 44.6255 10.4905 45.4284C8.48931 49.0108 7.97702 53.2364 9.06393 57.1932L9.06189 57.1927Z" fill="#27272A" fill-opacity="0.8"/>
</svg>
