<svg width="88" height="88" viewBox="0 0 88 88" fill="none" xmlns="http://www.w3.org/2000/svg">
<path d="M28.0635 14.0338C26.7531 13.9908 25.4931 14.54 24.6329 15.5295C23.0521 17.3452 22.232 19.7003 22.343 22.1054C22.4543 24.5104 23.4876 26.78 25.2288 28.4422C26.9705 30.1049 29.2855 31.0322 31.693 31.0318H33.6278H33.6274C36.0348 31.0322 38.3498 30.1045 40.0911 28.4422C41.8323 26.7795 42.8656 24.51 42.9766 22.105C43.0875 19.7004 42.2674 17.3452 40.6866 15.5295C39.8268 14.54 38.5664 13.9907 37.256 14.0338C37.1103 14.0477 36.9655 14.0694 36.8218 14.098C35.8434 14.2294 34.9099 14.5899 34.098 15.151C33.6749 15.4432 33.1728 15.5995 32.6584 15.5995C32.144 15.5995 31.6419 15.4432 31.2188 15.151C30.4064 14.5899 29.473 14.229 28.4941 14.098C28.3505 14.0694 28.2056 14.0477 28.0599 14.0338H28.0635ZM26.6569 19.5084H26.6574C27.4717 19.5072 28.2517 19.8362 28.8202 20.4194C29.186 20.7938 29.2527 21.3684 28.9822 21.8165C28.7117 22.265 28.1724 22.4741 27.6706 22.3247C27.1378 22.1668 26.677 21.8275 26.3684 21.3655C26.0594 20.9039 25.9219 20.3482 25.9796 19.7958C25.9952 19.664 26.0975 19.5588 26.2289 19.5404C26.3717 19.5302 26.5145 19.5302 26.6573 19.5404L26.6569 19.5084ZM38.7915 19.5084C38.8918 19.5031 38.992 19.5031 39.0919 19.5084C39.2237 19.5269 39.326 19.632 39.3411 19.7638H39.3374C39.3951 20.3162 39.2576 20.8715 38.9491 21.3335C38.6405 21.7955 38.1797 22.1348 37.6473 22.2928C37.1456 22.4413 36.6066 22.2322 36.3365 21.7841C36.066 21.336 36.1327 20.7618 36.4986 20.3874C37.0981 19.7703 37.9333 19.4384 38.7931 19.4765L38.7915 19.5084ZM34.5982 24.2698C34.7803 24.2661 34.9506 24.3602 35.0443 24.5161C35.138 24.6724 35.1408 24.8668 35.052 25.0256L33.3844 27.9348C33.2338 28.1992 32.9535 28.3625 32.6495 28.3625C32.3454 28.3625 32.0651 28.1992 31.9145 27.9348L30.2473 25.0256H30.2477C30.1266 24.7854 30.2146 24.4924 30.4478 24.3582C30.6811 24.2239 30.9786 24.2951 31.1255 24.5206L32.6515 27.1757L34.1701 24.5206C34.2573 24.3729 34.4136 24.2788 34.5855 24.2714L34.5982 24.2698Z" fill="#27272A"/>
<path d="M32.2625 7.7242C28.5499 7.83183 25.0258 9.38238 22.4378 12.0465C19.8499 14.7101 18.4021 18.2777 18.4017 21.9919V46.3962C18.4025 50.0011 19.3895 53.5372 21.256 56.6212C23.1225 59.7052 25.7972 62.2198 28.9904 63.8927C33.1068 66.0522 36.4976 69.3739 38.741 73.4449C38.9354 73.7989 38.9235 74.2302 38.7099 74.5724C38.4963 74.9149 38.114 75.1154 37.7109 75.0962C36.3327 75.0282 34.9929 75.5611 34.0374 76.5567C33.0818 77.5519 32.6042 78.9125 32.7283 80.2871C33.3384 79.5832 34.1618 79.0975 35.0727 78.9035C39.1572 78.6727 43.2548 78.8655 47.2995 79.4789C47.4268 79.4977 47.552 79.4347 47.6121 79.3214C47.6723 79.208 47.6547 79.0689 47.5679 78.9739C46.1569 77.443 45.4727 75.3789 45.6908 73.3082C45.9089 71.2375 47.0077 69.3608 48.7064 68.1573C48.0549 67.8835 47.4149 67.5827 46.7883 67.2557C43.025 65.3148 39.8274 62.433 37.507 58.8911C35.1863 55.3492 33.8215 51.2673 33.5449 47.0415C33.5449 46.7743 33.7528 46.5529 34.0196 46.5361C34.2865 46.5189 34.5209 46.7121 34.5549 46.9772C34.8205 51.0286 36.1292 54.942 38.3542 58.3376C40.5796 61.7334 43.6451 64.4956 47.2536 66.356C50.6846 68.1455 54.4916 69.0946 58.3615 69.1257C62.2314 69.1568 66.0529 68.2688 69.5124 66.5349C69.5648 66.5051 69.5975 66.449 69.5975 66.3884C69.5975 66.3275 69.5648 66.2714 69.5124 66.2415C66.9392 64.7773 64.724 62.759 63.0274 60.3332C61.3308 57.9073 60.1952 55.1343 59.7025 52.2154C59.229 48.4026 57.9048 44.7453 55.8287 41.5129C53.7523 38.2808 50.9765 35.5558 47.706 33.54C47.3839 33.3403 47.0316 33.1938 46.6629 33.1054C43.8008 32.4269 40.7864 32.9098 38.2795 34.4493C38.0413 34.5872 37.7365 34.5103 37.5924 34.2754C37.4488 34.0405 37.5183 33.7339 37.7491 33.5842C40.486 31.9031 43.7775 31.376 46.9023 32.1183H46.9661V21.9884C46.9657 18.1306 45.4041 14.4374 42.637 11.7496C39.8694 9.06182 36.1323 7.60866 32.2762 7.72076L32.2625 7.7242ZM28.0991 13.0212C28.2791 13.033 28.4579 13.0543 28.636 13.0846C29.772 13.2368 30.8557 13.6555 31.7992 14.3061C32.053 14.4813 32.3542 14.5754 32.6623 14.5754C32.9709 14.5754 33.272 14.4813 33.5258 14.3061C34.4682 13.6559 35.551 13.2372 36.6858 13.0846C38.4749 12.8444 40.2653 13.5192 41.4504 14.8808C43.2027 16.8929 44.112 19.5034 43.9892 22.1686C43.8668 24.8339 42.7214 27.3498 40.7919 29.1926C38.8623 31.0358 36.2965 32.0641 33.6283 32.0641H31.6935C29.0249 32.0649 26.4586 31.037 24.5283 29.1946C22.5975 27.3518 21.4522 24.836 21.329 22.1698C21.2058 19.5041 22.1151 16.8932 23.8678 14.8806C24.9293 13.6604 26.4844 12.9839 28.1008 13.0387L28.0991 13.0212Z" fill="#27272A" fill-opacity="0.8"/>
</svg>
