<svg width="88" height="88" viewBox="0 0 88 88" fill="none" xmlns="http://www.w3.org/2000/svg">
<path d="M66.5563 7.72197C64.0658 7.83042 61.725 8.94266 60.0675 10.8051C58.564 12.4952 57.9293 14.7869 58.3488 17.0098C59.2831 21.9607 61.2367 26.6627 64.0858 30.8175C64.8564 31.9391 65.052 33.3592 64.6141 34.6478C64.1758 35.9364 63.1552 36.9427 61.8604 37.3626C60.5657 37.7824 59.1489 37.5668 58.0379 36.7802C56.9269 35.9941 56.252 34.7296 56.2176 33.369C56.1448 30.5466 55.853 27.7344 55.3452 24.9569C54.4915 20.2963 51.6375 16.2445 47.5363 13.871C43.4354 11.4979 38.5002 11.042 34.0336 12.6246C24.3132 16.0686 15.7945 22.2487 9.5046 30.4205C9.32618 30.6586 9.34051 30.9889 9.53816 31.2111C9.73582 31.4329 10.0624 31.4849 10.3194 31.3355C12.6396 29.9367 15.2882 29.176 17.9973 29.1301C20.7059 29.0843 23.379 29.755 25.7451 31.0744C28.2079 32.715 31.0455 33.7057 33.9943 33.955C36.9428 34.2038 39.9064 33.7029 42.6093 32.4981C43.1785 32.2448 43.8231 32.2182 44.4111 32.4245C44.9992 32.6303 45.4862 33.0531 45.773 33.6063C47.1312 36.2318 49.0803 38.5063 51.4666 40.2505C53.8532 41.9946 56.6122 43.1609 59.5264 43.6577C61.9854 44.0784 64.5095 43.4772 66.5155 41.9933C68.5212 40.5099 69.8348 38.2719 70.1528 35.7976C70.4703 33.323 69.7648 30.8259 68.1992 28.8833C65.037 24.9617 62.8314 20.3579 61.7563 15.4361C61.5722 14.6017 61.8132 13.7304 62.4 13.1096C62.9869 12.4888 63.8433 12.1991 64.6863 12.3358C65.5298 12.4729 66.2504 13.0184 66.6109 13.793C67.7719 16.2697 69.7939 18.2401 72.2996 19.3372C72.3986 19.3806 72.4944 19.4301 72.5869 19.4858C73.5023 18.1464 74.8503 17.1626 76.4053 16.6989C76.2462 16.3408 76.1357 15.9627 76.0771 15.5748C75.7408 13.32 74.5815 11.2697 72.823 9.81909C71.0642 8.36877 68.8307 7.62119 66.5528 7.7206L66.5563 7.72197ZM71.0512 13.3308C71.3569 13.3255 71.6511 13.4442 71.868 13.6594C72.0845 13.8751 72.2044 14.1689 72.2011 14.4746C72.2015 14.7746 72.0824 15.0627 71.8705 15.275C71.6581 15.4874 71.3704 15.6065 71.07 15.6065C70.7701 15.6065 70.4824 15.4874 70.27 15.275C70.058 15.0627 69.9389 14.7746 69.9393 14.4746C69.932 13.8522 70.4292 13.3411 71.0512 13.3308Z" fill="#27272A" fill-opacity="0.8"/>
<path d="M39.3684 79.2964C38.4657 79.2968 37.5997 78.9387 36.961 78.3003C36.3226 77.6624 35.9637 76.7968 35.9637 75.8941V57.72L38.1682 58.6146C38.7943 58.8699 39.33 59.3061 39.707 59.8676C40.0843 60.4291 40.2852 61.09 40.2848 61.766V64.2279C40.2881 64.4996 40.5086 64.7177 40.7804 64.7177C41.0517 64.7177 41.2727 64.4996 41.2755 64.2279V61.766C41.2755 60.8927 41.0153 60.0391 40.5279 59.3148C40.0405 58.59 39.348 58.0269 38.5395 57.6979L35.9638 56.6519V35.0029H34.9776V56.2496L23.635 51.6384C23.252 51.4821 22.9532 51.1703 22.8141 50.7807C22.675 50.3907 22.7085 49.9602 22.9066 49.5968L31.1246 34.4922L30.1429 34.2266L22.0386 49.1237H22.0378C21.7055 49.7347 21.6495 50.4586 21.8835 51.1134C22.1176 51.7685 22.6197 52.2928 23.2643 52.5547L34.9777 57.3173V75.8937C34.9777 77.0583 35.4406 78.1751 36.2639 78.9989C37.0872 79.8227 38.2041 80.2855 39.3687 80.2859H41.8298C42.1011 80.283 42.3196 80.0621 42.3196 79.7907C42.3196 79.5194 42.1011 79.2988 41.8298 79.296L39.3684 79.2964Z" fill="#27272A"/>
<path d="M76.9257 17.5854C75.4414 17.9631 74.154 18.8867 73.3208 20.1717C73.4358 20.3358 73.5299 20.5134 73.6015 20.7004C74.8075 23.8425 74.8518 27.3123 73.7263 30.4843C73.6989 30.5628 73.7231 30.65 73.7865 30.704C73.8499 30.7576 73.94 30.767 74.0128 30.7273C76.2525 29.4685 77.8501 27.3153 78.4059 24.807C78.9616 22.2985 78.4223 19.672 76.9237 17.5854L76.9257 17.5854Z" fill="#27272A"/>
</svg>
