<svg width="88" height="88" viewBox="0 0 88 88" fill="none" xmlns="http://www.w3.org/2000/svg">
<path d="M22.1164 7.71368C17.5564 7.7231 13.133 9.27244 9.5638 12.1109C9.26957 12.3466 9.1067 12.71 9.12675 13.0865C9.17135 13.9593 9.37064 14.8171 9.71562 15.62C10.018 16.3222 9.9587 17.1276 9.55726 17.7779C7.8246 20.5794 7.3077 23.9658 8.12495 27.1565C8.384 28.1681 8.97369 29.0643 9.8003 29.7027C10.6269 30.3407 11.6431 30.6849 12.687 30.68C16.3136 30.6628 19.8031 29.2927 22.4724 26.8381C22.7118 26.6266 23.0768 26.6454 23.2929 26.8811C23.5086 27.1164 23.4967 27.4814 23.2651 27.702C22.2973 28.5917 21.2218 29.3565 20.0637 29.9785C22.2661 33.6823 25.0521 37.0057 28.3153 39.8203C29.4149 36.7331 30.6409 33.6926 31.9902 30.7056C32.131 30.4241 32.469 30.3038 32.7562 30.4331C33.0431 30.5624 33.1765 30.8955 33.0587 31.1877C26.8191 45.0058 23.2839 59.8914 22.6447 75.04C20.2032 75.9149 18.2263 77.7507 17.1733 80.1209C17.1569 80.1574 17.1602 80.1995 17.1823 80.2327C17.204 80.2658 17.2412 80.2859 17.2809 80.2854H25.2482C25.747 80.2842 26.1816 79.9446 26.3023 79.4604C29.8077 65.4349 34.5662 51.7541 40.5206 38.5813C40.6589 38.2952 41.0002 38.1713 41.2899 38.3022C41.5797 38.4332 41.7122 38.7716 41.5887 39.0646C40.5185 41.4312 39.4869 43.8149 38.4941 46.215C42.928 48.1424 47.6751 49.2494 52.5039 49.4823C52.7904 46.6849 53.9038 44.0368 55.7028 41.8757C57.5018 39.7141 59.904 38.1386 62.6027 37.3492C62.9133 37.2563 63.2407 37.4335 63.3332 37.7441C63.4261 38.0551 63.2489 38.3821 62.9383 38.475C59.2479 39.5537 56.2266 42.2149 54.69 45.7392C53.1534 49.2635 53.2598 53.2882 54.9801 56.7266C56.5732 60.3974 59.1227 63.573 62.3622 65.9223C63.5429 66.7788 64.2524 68.1407 64.2786 69.5992C64.3044 71.0582 63.6431 72.4442 62.4935 73.3421C61.3436 74.2403 59.8389 74.5456 58.4299 74.1675C56.7079 73.703 54.868 74.0672 53.4525 75.1517C52.037 76.2361 51.207 77.918 51.207 79.7015V80.2863H70.8562V80.2858C71.1926 80.2871 71.5134 80.1434 71.7364 79.8914C71.9594 79.6397 72.0638 79.3037 72.0221 78.9698C71.2834 73.0413 70.0468 67.1862 68.3247 61.4651C68.2011 61.0534 68.1929 60.616 68.3014 60.1998C68.4098 59.784 68.6304 59.4055 68.9389 59.1067C72.6919 55.4699 75.8958 51.3069 78.4493 46.7479C79.9418 44.825 80.5482 42.3589 80.1178 39.9629C79.6877 37.5673 78.2611 35.4663 76.1929 34.183C75.658 33.8507 75.2791 33.3175 75.1416 32.7028C74.4406 29.5694 73.0062 26.6471 70.956 24.1757C68.9062 21.7044 66.299 19.7545 63.3489 18.4866C54.1426 13.7122 43.923 11.2212 33.5526 11.2233C30.1822 8.92837 26.1967 7.70517 22.1189 7.71418L22.1164 7.71368ZM25.5694 11.5089C26.6117 11.5199 27.6009 11.9705 28.2933 12.7493C28.9857 13.5284 29.3171 14.5633 29.2062 15.5995C29.0953 16.6357 28.5523 17.5773 27.711 18.192C27.4491 18.3765 27.0877 18.3172 26.8991 18.0586C26.71 17.7999 26.7636 17.4374 27.0194 17.2446C27.6721 16.7679 28.0568 16.0072 28.0547 15.1989C28.0523 14.3907 27.6631 13.632 27.0075 13.1589C26.3523 12.6858 25.5097 12.5553 24.742 12.8078C23.9739 13.0603 23.3732 13.6651 23.1264 14.4348C23.0269 14.743 22.6971 14.9124 22.389 14.8134C22.0804 14.7143 21.9106 14.3845 22.0092 14.0764C22.2506 13.3242 22.7266 12.669 23.367 12.207C24.0079 11.745 24.7796 11.5003 25.5694 11.5089ZM14.2912 15.8045H14.2908C14.3121 15.8041 14.3333 15.8041 14.3542 15.8045C14.7446 15.8127 15.1154 15.9785 15.3814 16.2641C15.6478 16.5498 15.7873 16.9307 15.7677 17.3207C15.7877 17.716 15.6449 18.1024 15.372 18.3892C15.0994 18.6765 14.7209 18.8385 14.3247 18.8385C13.929 18.8385 13.5505 18.6765 13.2775 18.3892C13.005 18.1023 12.8618 17.716 12.8818 17.3207C12.8626 16.9307 13.0017 16.5493 13.2681 16.2637C13.5345 15.978 13.9053 15.8123 14.2961 15.8045L14.2912 15.8045Z" fill="#27272A" fill-opacity="0.8"/>
<path d="M16.0998 79.6463C16.0097 79.8468 15.9729 80.0674 15.9922 80.2863H9.99778C9.96218 80.2863 9.92862 80.2703 9.90652 80.2425C9.88443 80.2151 9.87583 80.1787 9.88361 80.1443C10.6063 76.877 12.4629 73.9715 15.1238 71.943C15.7139 71.4929 16.0564 70.7898 16.0466 70.0475C15.8809 57.6992 17.5468 45.3949 20.9893 33.5348C22.974 36.302 25.2939 38.8118 27.8971 41.0072C24.2059 51.7244 22.0533 62.9119 21.5038 74.2346C19.0955 75.308 17.1701 77.2358 16.0999 79.6457L16.0998 79.6463Z" fill="#27272A"/>
<path d="M46.4367 73.702C44.3893 73.6296 42.3731 74.2148 40.6825 75.3717C38.9915 76.5282 37.7161 78.1962 37.0425 80.1306C37.0298 80.1658 37.0351 80.2051 37.0564 80.2358C37.0776 80.2665 37.1124 80.2849 37.1501 80.2857H50.0295V79.7018H50.0291C50.0291 78.3476 50.4269 77.0239 51.1733 75.8939C51.9197 74.7645 52.9817 73.8793 54.2273 73.3485L58.2754 63.8778C56.4524 61.9234 54.9754 59.673 53.9081 57.2226C52.8928 55.1842 52.385 52.9306 52.4275 50.6537C50.5676 50.5633 48.7158 50.3468 46.8854 50.0055C45.4118 51.1596 44.3838 52.7886 43.9774 54.6159C43.5707 56.4427 43.8105 58.3542 44.6555 60.0242L49.3019 69.2101H49.3023C49.7967 70.187 49.7382 71.352 49.1493 72.2744C48.56 73.1972 47.5276 73.7402 46.4332 73.7026L46.4367 73.702Z" fill="#27272A"/>
</svg>
