<svg width="88" height="88" viewBox="0 0 88 88" fill="none" xmlns="http://www.w3.org/2000/svg">
<path d="M13.289 22.33C11.5678 22.418 9.97228 23.2573 8.92425 24.6257C7.87663 25.9941 7.48293 27.7538 7.84719 29.4383C8.21099 31.1231 9.29667 32.5627 10.8161 33.3763C11.2642 33.6157 11.6199 33.9971 11.8282 34.4604C14.9764 41.4373 20.0148 47.3932 26.3733 51.6539C32.7318 55.9143 40.1568 58.3091 47.8065 58.5669C55.4563 58.8247 63.0253 56.9349 69.6567 53.1124C70.0058 52.9123 70.4011 52.8071 70.8034 52.8075H80.0707C80.1587 52.8083 80.2381 52.7551 80.2708 52.6737C80.304 52.5918 80.2839 52.4985 80.2201 52.438L74.8089 47.2248C67.347 51.2736 58.8746 53.0825 50.4099 52.4326C41.9454 51.7832 33.848 48.7029 27.092 43.5626C24.723 41.7608 22.8016 39.4364 21.4778 36.7707C20.1543 34.1046 19.4635 31.1692 19.4603 28.1929C19.459 26.5843 18.7977 25.0464 17.6318 23.9386C16.4655 22.8305 14.8958 22.2494 13.2892 22.3303L13.289 22.33ZM12.7922 25.9881C13.0488 25.9889 13.2944 26.0932 13.4728 26.2778C13.6508 26.4628 13.7466 26.712 13.738 26.9686C13.738 27.492 13.3136 27.9163 12.7898 27.9163C12.266 27.9163 11.8416 27.492 11.8416 26.9686C11.833 26.7112 11.9292 26.4611 12.1084 26.2761C12.2877 26.0912 12.5348 25.9872 12.7922 25.9881Z" fill="#27272A" fill-opacity="0.8"/>
<path d="M65.7611 31.8026C70.1308 35.5965 73.1612 40.6983 74.4019 46.3508L61.2626 44.8154L58.1054 36.1861L65.7611 31.8026Z" fill="#27272A"/>
<path d="M73.6623 47.0004L61.2532 45.5505L59.3581 51.4674C64.3495 50.82 69.1898 49.3084 73.6623 47.0003V47.0004Z" fill="#27272A"/>
<path d="M70.0219 53.746C68.0196 54.9005 65.9252 55.8863 63.7599 56.6933C64.8186 59.1 65.6506 61.5999 66.2448 64.1608C66.3111 64.4477 66.4568 64.71 66.6651 64.9179C66.8738 65.1258 67.1361 65.2706 67.4234 65.3361C69.6369 65.8378 71.94 65.7855 74.1286 65.1843C74.4985 65.0824 74.8177 64.8487 75.0268 64.5271C75.2359 64.2058 75.3198 63.8191 75.2629 63.4398C74.7285 59.8669 73.351 56.4718 71.2444 53.5369H70.8044C70.5299 53.5369 70.2598 53.6094 70.022 53.7469L70.0219 53.746Z" fill="#27272A"/>
<path d="M61.7813 62.6958C61.5251 63.1013 61.0975 63.3678 60.6203 63.4181C59.285 63.5625 57.935 63.4893 56.6234 63.2012C56.2228 63.1132 55.8725 62.8714 55.6482 62.528C55.4236 62.1847 55.3426 61.7669 55.4224 61.3646C55.5987 60.4774 55.8295 59.6021 56.1136 58.7432C58.4797 58.3446 60.807 57.7426 63.0695 56.9438C63.1874 57.2114 63.3028 57.4803 63.4149 57.75C63.2807 59.5071 62.7192 61.205 61.7793 62.6959L61.7813 62.6958Z" fill="#27272A"/>
<path d="M40.217 63.3726C39.4415 63.6291 38.6292 63.7581 37.812 63.7536C37.99 63.3758 38.0616 62.9564 38.0191 62.541C37.8304 60.7253 37.3054 58.9607 36.4714 57.3369C37.0828 57.5321 37.6987 57.7138 38.3183 57.8807C39.3581 58.8044 40.2715 59.8605 41.0356 61.0228C41.3036 61.4304 41.3666 61.939 41.2066 62.3999C41.0462 62.8602 40.6808 63.2204 40.2179 63.3734L40.217 63.3726Z" fill="#27272A"/>
<path d="M36.4226 64.1855C36.7099 64.0439 36.9468 63.8176 37.1019 63.5369C37.2566 63.2566 37.3217 62.9354 37.2885 62.6166C37.0831 60.6334 36.4566 58.717 35.4507 56.9959C32.9581 56.1267 30.5535 55.0226 28.2696 53.6991V62.4873C28.27 63.0299 28.5511 63.5341 29.0128 63.8198C31.2544 65.2111 34.0549 65.3494 36.4226 64.1855Z" fill="#27272A"/>
<path d="M27.5357 42.9796C31.2597 45.8123 35.4174 48.0234 39.8484 49.5272L36.8496 41.3238L24.6291 40.2275C25.4962 41.2465 26.471 42.1693 27.5362 42.9796H27.5357Z" fill="#27272A"/>
<path d="M60.612 45.1597L57.3889 36.3498L44.126 34.3094L37.535 41.0706L40.7315 49.8166V49.8161C46.4877 51.6331 52.5592 52.2281 58.5589 51.5632L60.612 45.1597Z" fill="#27272A"/>
<path d="M24.378 39.4712L36.9725 40.601L43.5283 33.8758L38.8893 26.849V26.8494C32.6625 29.1252 27.4944 33.6197 24.3777 39.4712L24.378 39.4712Z" fill="#27272A"/>
<path d="M65.1672 31.3008C61.6499 28.4215 57.4603 26.4801 52.9896 25.658C48.5188 24.8363 43.913 25.16 39.6011 26.6001L44.2134 33.5831L57.5863 35.6411L65.1672 31.3008Z" fill="#27272A"/>
</svg>
