<svg width="88" height="88" viewBox="0 0 88 88" fill="none" xmlns="http://www.w3.org/2000/svg">
<path d="M49.1752 9.91147C48.9984 9.90902 48.8228 9.94217 48.6592 10.0093C44.7879 11.5521 41.262 13.8499 38.2877 16.7688C35.313 19.6882 32.9498 23.1703 31.3346 27.0121C31.1607 27.4271 30.8713 27.7835 30.5006 28.0389C30.1302 28.2938 29.6944 28.4375 29.2447 28.4526C26.1583 28.5476 23.2005 29.7089 20.8736 31.7387C17.3391 34.6847 15.1968 38.9737 14.9648 43.5694C14.921 44.4202 15.223 45.2525 15.8021 45.8775C17.2462 47.4317 19.13 48.5092 21.2018 48.9658C22.0084 49.1434 22.7442 49.5555 23.3171 50.1506C23.89 50.7452 24.2738 51.4961 24.4212 52.3089C25.4495 57.9971 27.3045 63.5048 29.9277 68.6559C30.3762 69.5325 30.6029 70.5056 30.5877 71.4899C30.5742 72.1892 30.5219 72.887 30.4298 73.5802C30.3389 74.2804 29.9383 74.9028 29.338 75.2752C28.9185 75.5351 28.578 75.9046 28.3534 76.3437C28.1655 76.7108 28.1598 77.1445 28.3378 77.5165C28.5158 77.8881 28.8571 78.1557 29.261 78.2396C31.1345 78.6329 33.0689 78.6329 34.9419 78.2396C35.6016 78.1001 36.0505 77.4866 35.9838 76.8159C35.6659 73.6709 36.1884 70.4978 37.498 67.6209C36.3177 64.5019 36.1803 61.084 37.1059 57.8802C37.2356 57.4317 37.4394 57.0085 37.7087 56.6271C40.8327 52.2116 46.0729 49.7951 51.4598 50.2862C51.7425 50.3132 51.95 50.5645 51.923 50.8476C51.896 51.1308 51.6447 51.3383 51.3619 51.3113C46.3428 50.855 41.4607 53.1066 38.5496 57.2201C38.3462 57.5074 38.1923 57.8266 38.0941 58.1646C37.1823 61.3107 37.3702 64.6733 38.6269 67.6979C38.7656 68.0302 38.9608 68.3359 39.2027 68.6023C41.2108 70.8261 44.016 72.1663 47.0075 72.3308C49.6388 71.3691 52.5184 71.3306 55.1744 72.2211C55.4244 72.3234 55.5525 72.6017 55.4678 72.8583C55.3831 73.1148 55.1146 73.2626 54.8527 73.1959C51.7217 72.1466 48.2892 72.5161 45.4536 74.2075C44.8381 74.557 44.4338 75.1859 44.3716 75.891C44.3094 76.5957 44.5971 77.286 45.1418 77.7378C46.1002 78.6206 47.2771 79.2299 48.551 79.5025C49.8249 79.7754 51.1484 79.7017 52.3839 79.2888C55.5145 78.2437 58.7821 77.6655 62.0812 77.5738C63.3965 77.5365 64.5943 76.8065 65.2299 75.6545C65.3346 75.2867 65.3105 74.8938 65.1619 74.5415C65.0134 74.1887 64.749 73.8973 64.4127 73.7152C64.1082 73.5519 63.9273 73.2262 63.9494 72.8812C63.9715 72.5367 64.1929 72.2367 64.5158 72.1139C67.4757 70.9951 69.7768 68.6057 70.783 65.6056C72.2358 60.6408 72.102 55.3467 70.4008 50.4612C68.1047 44.7796 63.6523 40.2379 58.0169 37.8301C55.3062 36.6135 52.3806 35.9497 49.4105 35.8772C46.4403 35.8044 43.4857 36.3249 40.719 37.4081C40.3065 37.5689 39.8567 37.6098 39.4217 37.5263C38.9867 37.4429 38.584 37.2378 38.2603 36.9354C37.2262 35.9697 36.4519 34.7588 36.0096 33.4149C34.6374 29.8296 35.0021 25.8111 36.9975 22.5312C39.9783 17.3094 44.2952 12.9749 49.505 9.97338C49.3949 9.94228 49.2811 9.9255 49.1666 9.92386L49.1752 9.91147ZM24.5488 36.5845C24.9237 36.5935 25.2789 36.7535 25.5338 37.0289C25.7888 37.3039 25.9218 37.6706 25.9021 38.045C25.9271 38.4281 25.7924 38.8046 25.5297 39.0845C25.2674 39.3648 24.9007 39.5236 24.5169 39.5236C24.133 39.5236 23.7664 39.3648 23.5036 39.0845C23.2413 38.8046 23.1067 38.4281 23.1316 38.045C23.1116 37.6595 23.2528 37.2831 23.5216 37.0056C23.7905 36.7285 24.1625 36.5759 24.5488 36.5845Z" fill="#27272A" fill-opacity="0.8"/>
<path d="M39.9206 7.12275C36.939 9.37722 34.4897 12.2597 32.7465 15.5659C31.2696 19.1823 30.411 23.0212 30.2052 26.9221C30.2796 26.8284 30.3406 26.7249 30.3869 26.6148C32.4232 21.77 35.6061 17.4928 39.662 14.1513C40.2709 11.9144 40.4771 9.58763 40.2713 7.27909C40.2635 7.20011 40.214 7.13136 40.1416 7.09903C40.0691 7.06711 39.9848 7.07652 39.9214 7.12358L39.9206 7.12275Z" fill="#27272A"/>
<path d="M37.8924 23.0455C36.0787 26.0194 35.7276 29.6599 36.9389 32.9258C39.1859 32.1348 41.189 30.7737 42.7519 28.9756C46.6281 23.8119 49.2615 17.8247 50.4482 11.4782C50.4985 11.2061 50.4621 10.925 50.3443 10.6745C45.1483 13.5923 40.844 17.8687 37.8923 23.0458L37.8924 23.0455Z" fill="#27272A"/>
</svg>
