<svg width="88" height="88" viewBox="0 0 88 88" fill="none" xmlns="http://www.w3.org/2000/svg">
<path d="M22.7187 13.4314L13.3281 18.2988C13.0425 18.4473 12.8277 18.7035 12.7319 19.0108C12.6365 19.3186 12.6677 19.6513 12.8191 19.9353C13.3916 21.0119 14.3897 21.7985 15.5703 22.1033C18.9542 22.7609 22.4277 22.8154 25.8305 22.2646C26.2504 22.1962 26.59 21.8872 26.6976 21.4756C26.8049 21.0643 26.6596 20.6285 26.3269 20.3637C24.1874 18.6761 22.8737 16.152 22.7187 13.4314ZM20.7085 16.8849H21.9358C22.2018 16.8972 22.4109 17.1161 22.4109 17.3825C22.4109 17.6485 22.2018 17.8679 21.9358 17.8801H20.7085C20.4425 17.8679 20.2334 17.6485 20.2334 17.3825C20.2334 17.1161 20.4425 16.8972 20.7085 16.8849Z" fill="#27272A"/>
<path d="M31.2337 7.08503C29.6308 7.0748 28.0634 7.55932 26.7457 8.4727C25.428 9.38568 24.4238 10.683 23.8706 12.1877C23.8251 12.3067 23.7695 12.4217 23.7044 12.531C23.5894 15.2634 24.7922 17.8849 26.9385 19.5799C27.333 19.8901 27.6011 20.3333 27.6931 20.8264C27.7852 21.3199 27.6948 21.8298 27.4394 22.2615C27.1836 22.6932 26.7797 23.0173 26.3025 23.1737L26.9741 25.2562C28.2501 29.222 27.4533 33.5631 24.8526 36.8177C21.3976 41.1392 20.2689 46.8749 21.8285 52.1842C23.3881 57.4927 27.4397 61.7066 32.6829 63.4723C36.9978 65.3679 41.6752 66.296 46.3868 66.192C51.0986 66.0877 55.7303 64.9533 59.9576 62.8687C61.9968 61.8616 63.8068 60.4448 65.2739 58.7068C67.7693 55.7518 70.4718 52.9776 73.361 50.4061C73.4571 50.321 73.5394 50.2211 73.604 50.1106C73.7109 49.9265 73.8156 49.7415 73.9187 49.5557C74.2007 49.0409 74.0656 48.3972 73.6004 48.0395C73.1351 47.6818 72.4783 47.7166 72.0534 48.1218C71.6557 48.506 71.2248 48.8543 70.7656 49.1628C70.5377 49.3081 70.2353 49.2451 70.0842 49.0208C69.9328 48.797 69.9877 48.4933 70.2078 48.3358C71.5202 47.4531 72.5576 46.2189 73.2017 44.7739C73.4108 44.3033 73.3941 43.7627 73.1563 43.3055C72.9185 42.8484 72.4856 42.5243 71.9798 42.4253C71.4744 42.3258 70.951 42.4621 70.5582 42.7952C68.8837 44.2222 66.6964 44.8991 64.5086 44.667L45.1947 37.9979H45.1943C42.279 36.9912 39.842 34.936 38.3582 32.2319C36.8743 29.5278 36.4491 26.3685 37.1661 23.3685L38.762 16.6993L38.7616 16.6989C39.3178 14.386 38.7866 11.9458 37.3199 10.0732C35.8532 8.20013 33.6115 7.09971 31.233 7.08463L31.2337 7.08503ZM30.4198 12.6415C30.6256 12.6374 30.8241 12.7172 30.9702 12.8621C31.1163 13.0069 31.1973 13.2046 31.1949 13.4104C31.1949 13.8307 30.8544 14.1712 30.4345 14.1712C30.0143 14.1712 29.6738 13.8307 29.6738 13.4104C29.6689 12.9926 30.002 12.6493 30.4198 12.6415ZM46.5154 43.1272C51.9381 43.0801 57.2493 44.672 61.7509 47.6946C62.0992 47.9279 62.346 48.2847 62.4417 48.6927C62.5371 49.1007 62.4745 49.5296 62.2666 49.8934C62.0583 50.2572 61.7198 50.5285 61.3196 50.6529C60.9325 50.7724 60.5409 50.8764 60.1455 50.9647C60.4124 51.2688 60.5859 51.6437 60.6452 52.0443C60.7041 52.4445 60.6468 52.8538 60.4795 53.2225C60.0649 54.1293 59.4429 54.9261 58.6633 55.5481C57.9652 55.9954 57.2265 56.3755 56.4571 56.6833C56.8508 57.2668 56.7276 58.055 56.1752 58.4904C52.802 61.1402 48.4367 62.1788 44.2313 61.3308C40.0265 60.4833 36.4044 57.8348 34.3214 54.0851C34.1868 53.8432 34.274 53.5384 34.5158 53.4037C34.7577 53.2691 35.063 53.3563 35.1972 53.5981C37.1377 57.0921 40.5122 59.5597 44.4297 60.3507C48.3473 61.1414 52.4146 60.1756 55.5586 57.7083C55.6904 57.606 55.7305 57.4243 55.6544 57.2758C55.5782 57.1276 55.4072 57.0544 55.2476 57.1019C53.1356 57.7186 50.9028 57.7955 48.7536 57.3253C48.4946 57.2586 48.3346 56.9991 48.391 56.7376C48.4479 56.4761 48.7008 56.3059 48.9644 56.3522C52.0978 57.0384 55.3753 56.4577 58.0827 54.7369C58.7215 54.218 59.2323 53.5584 59.5748 52.8098C59.7413 52.4464 59.6992 52.0217 59.4651 51.698C59.2306 51.3743 58.8398 51.2016 58.4428 51.2466H58.4711C57.3908 51.3628 56.3009 51.3628 55.2206 51.2466C54.9612 51.2028 54.7807 50.9651 54.8077 50.7036C54.8351 50.4421 55.061 50.2465 55.3238 50.2571C57.2509 50.4675 59.2008 50.2796 61.0521 49.7055C61.2956 49.6298 61.4736 49.4207 61.5097 49.1686C61.5457 48.9161 61.4335 48.6656 61.2211 48.5249C56.6619 45.463 51.2483 43.9284 45.7614 44.1425C45.4881 44.1568 45.2544 43.9481 45.2372 43.6747C45.2204 43.4018 45.4271 43.1661 45.7001 43.1464C45.9714 43.1362 46.2427 43.13 46.514 43.128L46.5154 43.1272Z" fill="#27272A" fill-opacity="0.8"/>
<path d="M29.2128 74.3201C28.8686 74.3029 28.6039 74.0099 28.6211 73.6658C28.6387 73.3216 28.9317 73.0564 29.2758 73.074H35.7395H35.7391C36.1459 72.9578 36.4532 72.6247 36.5367 72.2105C36.6198 71.796 36.4647 71.37 36.1348 71.106C35.9392 70.9493 35.8738 70.6809 35.9757 70.4517C36.0772 70.2225 36.3206 70.0912 36.5678 70.1313C38.3672 70.4316 40.0442 71.2382 41.402 72.4569C41.5228 72.5645 41.6873 72.6087 41.8461 72.576C42.0044 72.5432 42.1378 72.4372 42.2062 72.2903C42.9555 70.6673 43.3438 68.9011 43.3442 67.1132C44.7119 67.2106 46.0839 67.2229 47.4533 67.1508C46.2428 69.4 45.6543 71.931 45.7477 74.4833C45.7775 75.3087 45.507 76.117 44.9857 76.7578C44.4643 77.3983 43.7277 77.828 42.9134 77.9662L33.0175 79.6489C32.7482 79.696 32.4863 79.5331 32.4094 79.2708C32.332 79.0085 32.4642 78.7298 32.7163 78.6234C33.2073 78.4163 33.6649 78.1377 34.0741 77.7964C34.2742 77.6282 34.3147 77.3356 34.1682 77.1191C33.0564 75.4629 31.2304 74.4264 29.2382 74.3204L29.2128 74.3201Z" fill="#27272A"/>
</svg>
