<svg width="88" height="88" viewBox="0 0 88 88" fill="none" xmlns="http://www.w3.org/2000/svg">
<path d="M26.2564 8.00171C25.8435 8.01235 25.4327 8.06637 25.0308 8.16212C21.9346 9.42251 19.2374 11.4977 17.2252 14.1675C14.4293 15.1517 12.3309 17.4965 11.6618 20.3841C11.3459 22.0267 10.3884 23.4754 9.00142 24.4101C8.57009 24.6998 8.32088 25.1937 8.34421 25.7127C8.39127 26.7452 8.78903 27.7302 9.47165 28.506C11.0787 28.2351 12.4979 27.3004 13.3809 25.9304C13.4272 25.8543 13.5021 25.7998 13.5888 25.7798C13.6752 25.7597 13.7664 25.7757 13.8413 25.824C13.9158 25.8723 13.9682 25.9488 13.9854 26.0359C14.003 26.1231 13.9846 26.214 13.9338 26.2872C13.0409 27.6725 11.6516 28.664 10.0507 29.0581C10.1371 29.1276 10.2259 29.1935 10.3167 29.2565C10.6461 29.4824 11.0525 29.5667 11.4446 29.4902C12.1325 29.3556 12.7659 29.0204 13.264 28.5269C13.5652 28.2285 13.9478 28.0264 14.3636 27.9454C14.7798 27.8643 15.2102 27.9081 15.6014 28.071C17.0002 28.6541 18.5708 28.6722 19.9826 28.1213C21.3944 27.5705 22.5378 26.4943 23.1725 25.118C23.2547 24.9646 23.4421 24.9019 23.6001 24.9752C23.7581 25.048 23.8321 25.2314 23.7687 25.3934C23.2195 26.5847 22.3233 27.582 21.198 28.2555C20.0722 28.9291 18.7696 29.2471 17.4605 29.1681C18.6861 32.5381 19.5757 36.0206 20.1167 39.5653C20.8284 41.6503 21.9222 43.5847 23.3426 45.2691C25.5156 48.815 28.8021 51.5404 32.689 53.0193C31.7539 49.998 30.9235 46.9456 30.1992 43.867C30.1661 43.6927 30.2761 43.5233 30.4488 43.4828C30.6215 43.4422 30.7954 43.5454 30.8429 43.716C32.1724 49.3727 33.861 54.9392 35.8981 60.3805C35.058 61.9065 35.0252 63.7488 35.8101 65.3035C36.446 68.619 35.7921 72.052 33.9821 74.9014C33.8152 75.1642 33.7972 75.4948 33.9351 75.7739C34.073 76.053 34.3463 76.24 34.6565 76.267C36.047 76.3857 37.4078 75.8177 38.3007 74.7451C38.5233 74.4775 38.6444 74.1399 38.644 73.7921V64.871C38.644 64.6062 38.6927 64.3439 38.7876 64.0971C39.2141 62.995 39.302 61.7911 39.0401 60.6387C38.9489 60.2413 38.973 59.826 39.1093 59.4417L41.0728 53.9249L41.0723 53.9245C43.2212 50.8705 43.8575 47.0021 42.8005 43.4201C42.7698 43.2543 42.8692 43.0927 43.0305 43.0448C43.1917 42.9969 43.3632 43.0788 43.4278 43.2343C44.4751 46.7794 43.9504 50.6041 41.9865 53.7366C48.0541 53.6298 54.1075 53.1122 60.1051 52.1865C64.3831 50.9596 67.9463 47.9862 69.9184 43.9962C69.9523 43.9111 70.0207 43.844 70.1066 43.8112C70.1921 43.7785 70.2879 43.7834 70.3701 43.8239C70.4524 43.8648 70.5138 43.9381 70.5396 44.0265C70.5653 44.1145 70.5531 44.2094 70.506 44.288C69.8885 45.5374 69.1147 46.7037 68.2033 47.7582C72.4822 52.1434 75.5092 57.5944 76.9707 63.5448C77.3872 67.5474 76.8565 71.5914 75.4217 75.3515C75.378 75.4656 75.389 75.5937 75.4516 75.6985C75.5146 75.8032 75.6219 75.8736 75.743 75.8888C76.4354 75.9714 77.1364 75.8499 77.7605 75.5397C78.3846 75.2291 78.9047 74.7433 79.2566 74.1418C79.3904 73.9138 79.4612 73.6544 79.4616 73.39V69.9992C79.4898 66.6799 79.96 63.3792 80.8596 60.1839C81.0036 59.6691 80.8608 59.1163 80.4847 58.7361C78.1083 56.3204 76.7898 53.0593 76.8193 49.6714C76.8246 48.9483 77.028 48.2403 77.4069 47.6244C80.1262 43.2146 80.3411 37.704 77.9733 33.0961C76.7608 30.7589 74.9496 28.7853 72.7245 27.3775C70.4992 25.9694 67.9403 25.1771 65.309 25.0822C64.3039 25.0454 63.3026 25.2279 62.3748 25.6162C53.4524 29.3541 43.4464 29.5731 34.3688 26.2297C34.0271 26.4989 33.6629 26.7388 33.2806 26.9466C32.8477 27.1815 32.3128 27.1124 31.9543 26.7744C31.5959 26.4359 31.4956 25.906 31.7051 25.4603C31.8136 25.2291 31.9151 24.9946 32.0092 24.7573C29.9942 23.3966 28.3429 21.5641 27.1983 19.4189C26.5579 20.1118 25.7771 20.6597 24.9083 21.0268C24.7405 21.098 24.5474 21.0195 24.4762 20.8517C24.4054 20.6843 24.4839 20.4907 24.6513 20.4199C26.2575 19.7427 27.4881 18.3983 28.0213 16.7389C28.1277 16.4074 28.0467 16.0441 27.8089 15.7895C27.5716 15.5346 27.2147 15.4286 26.8767 15.5121C25.9273 15.7437 25.0741 16.2675 24.4377 17.0094C23.801 17.7513 23.413 18.6738 23.3283 19.6477C23.3091 19.8258 23.1507 19.9559 22.9723 19.9408C22.7939 19.9256 22.66 19.7705 22.6711 19.5917C22.8127 17.9707 23.686 16.5033 25.0434 15.6062C25.7473 14.6576 26.8211 14.0524 27.9972 13.9427C29.1733 13.8326 30.3408 14.228 31.2079 15.0296C32.5465 16.0465 33.3826 17.5901 33.502 19.2667C33.6624 21.4921 33.2487 23.7212 32.3005 25.7407C32.2113 25.9293 32.2538 26.154 32.4057 26.2972C32.5575 26.4405 32.7842 26.4695 32.9671 26.3693C34.9449 25.295 36.2966 23.3471 36.6104 21.1189C36.8948 19.1031 36.8421 17.0545 36.4541 15.0562C35.5563 12.3545 33.4487 10.2265 30.7553 9.30375C28.6141 8.56756 26.2591 8.79549 24.2989 9.92906C22.2929 10.9992 20.6404 12.6279 19.5408 14.6184C19.5011 14.6994 19.4299 14.7604 19.344 14.7874C19.2576 14.8144 19.1643 14.8046 19.0858 14.7608C19.0068 14.717 18.9495 14.643 18.927 14.5558C18.9041 14.4682 18.9184 14.3757 18.9663 14.2992C20.1244 12.2019 21.8648 10.4844 23.9768 9.35373C25.209 8.64372 26.6 8.25456 28.0216 8.22303C27.4474 8.0622 26.852 7.98854 26.2558 8.00492L26.2564 8.00171ZM19.0688 19.1536C19.2837 19.1491 19.4911 19.2314 19.6438 19.3824C19.7968 19.533 19.8824 19.7392 19.8807 19.9541C19.8807 20.3927 19.5251 20.7484 19.086 20.7484C18.6473 20.7484 18.2917 20.3927 18.2917 19.9541C18.2884 19.5195 18.6346 19.1634 19.0688 19.1536Z" fill="#27272A" fill-opacity="0.8"/>
<path d="M33.8644 76.6637C33.4846 76.9882 33.2293 77.4343 33.1417 77.9262C33.1012 78.155 33.1777 78.3886 33.3459 78.549C33.5137 78.7095 33.7511 78.7753 33.9778 78.7238C35.3732 78.4038 36.6954 77.8219 37.874 77.0096C38.0655 76.8872 38.1228 76.6331 38.0021 76.4407C37.8813 76.248 37.628 76.1891 37.4345 76.3082C36.5726 76.7931 35.5852 77.0071 34.6001 76.9236C34.337 76.9011 34.0837 76.8119 33.8643 76.6642L33.8644 76.6637Z" fill="#27272A" fill-opacity="0.8"/>
<path d="M65.3358 74.0541C64.4904 74.4089 63.536 74.3999 62.6975 74.0296L61.631 75.3644C61.5807 75.427 61.5696 75.5122 61.6016 75.5858C61.6335 75.6595 61.7039 75.7094 61.7841 75.7151C63.1525 75.8252 64.5231 75.5334 65.7282 74.8754C65.9377 74.7584 66.0203 74.4989 65.9164 74.2824C65.8129 74.066 65.5587 73.9673 65.3361 74.0574L65.3358 74.0541Z" fill="#27272A" fill-opacity="0.8"/>
<path d="M74.9351 77.6065C74.9642 77.1907 75.1107 76.7913 75.3574 76.4554C75.4569 76.5004 75.5624 76.5294 75.6709 76.5421C76.651 76.6584 77.6414 76.4284 78.47 75.8927C78.7765 75.7589 79.1338 75.8906 79.2799 76.191C79.426 76.4918 79.3085 76.8544 79.0143 77.0123C77.8173 77.627 76.4787 77.9122 75.1353 77.8386C75.0162 77.83 74.9266 77.7264 74.9352 77.6073L74.9351 77.6065Z" fill="#27272A" fill-opacity="0.8"/>
<path d="M65.627 73.1385C65.2162 73.438 64.7292 73.6148 64.2217 73.6479C63.7143 73.6811 63.2081 73.5694 62.7624 73.3255C62.6012 73.2363 62.5222 73.0488 62.5709 72.8716C63.1438 70.7621 63.6475 68.6346 64.0814 66.4922C64.971 62.1085 64.0646 57.5514 61.565 53.8422C61.2994 53.4481 61.0219 53.0622 60.7334 52.6845C63.4179 51.8316 65.8385 50.3044 67.7643 48.2484C67.8547 48.3405 67.9448 48.433 68.034 48.5263C66.8992 50.3048 66.6332 52.5023 67.3117 54.4998L68.8353 58.9698C68.9445 59.3086 68.929 59.6753 68.7915 60.0035C67.1456 64.1092 66.127 68.4396 65.7701 72.8483C65.7611 72.9637 65.7026 73.0697 65.6093 73.1381L65.627 73.1385Z" fill="#27272A"/>
<path d="M16.8195 13.6158C15.4969 14.1131 14.3044 14.9041 13.3325 15.9296C12.8447 14.4265 12.762 12.8211 13.0931 11.2755C13.3333 10.148 14.1431 9.22727 15.2304 8.8451C16.0972 8.54064 17.0368 8.50994 17.9212 8.75752C18.8059 9.0047 19.5933 9.51827 20.1759 10.2283C19.842 10.4898 19.5167 10.7627 19.2012 11.0459L18.5349 10.1444V10.1448C18.4253 10.0028 18.2223 9.97455 18.0778 10.0809C17.9338 10.1873 17.9006 10.3895 18.0038 10.536L18.7179 11.4969H18.7175C18.0332 12.1553 17.3989 12.8632 16.8195 13.6158Z" fill="#27272A"/>
<path d="M74.3077 27.6865C76.0759 29.0627 77.5254 30.8048 78.557 32.7936C78.8574 33.378 79.1205 33.9812 79.3448 34.5991C79.4078 34.7955 79.6116 34.9105 79.8125 34.8626C80.0134 34.8147 80.1436 34.6203 80.1108 34.4161C79.9169 32.8468 79.2621 31.3695 78.2292 30.1716C77.1963 28.9742 75.8319 28.1091 74.3076 27.6868L74.3077 27.6865Z" fill="#27272A"/>
</svg>
